<?xml version="1.0" encoding="utf-8"?>
<!-- Generator: Adobe Illustrator 19.0.0, SVG Export Plug-In . SVG Version: 6.00 Build 0)  -->
<svg version="1.1" id="Layer_1" xmlns="http://www.w3.org/2000/svg" xmlns:xlink="http://www.w3.org/1999/xlink" x="0px" y="0px"
	 viewBox="0 0 500 500" style="enable-background:new 0 0 500 500;" xml:space="preserve">
<style type="text/css">
	.st0{fill:#FFFFFF;}
	.st1{fill:#FFD001;}
</style>
<g id="XMLID_1_">
	<rect id="XMLID_3_" x="67.5" y="198.4" width="365" height="104"/>
	<path id="XMLID_4_" class="st0" d="M179.4,229.2c0,19.4,0,38.8,0,58.2c-13.2,0-26.3,0-39.5,0c-6.4-20.3-12.8-40.6-19.2-60.9
		c0,0-0.1,0-0.1,0c-6.5,20.3-13,40.6-19.6,60.9c-6.7,0-13.4,0-20.1,0c9.5-25.4,19.1-50.7,28.6-76c8.2,0,16.3,0,24.5,0
		c9,24,18.1,48,27.1,72c0,0,0.1,0,0.1,0c0-24,0-47.9,0-72c9.4,0,18.8,0,28.2,0c8.1,18.8,16.1,37.6,24.2,56.5c0.1,0,0.1,0,0.2,0
		c0-18.8,0-37.6,0-56.4c6.1,0,12.1,0,18.1,0c0,25.3,0,50.6,0,76c-9.3,0-18.5,0-27.8,0c-8.2-19.4-16.4-38.8-24.6-58.2
		C179.5,229.2,179.4,229.2,179.4,229.2z"/>
	<path id="XMLID_5_" class="st1" d="M401.3,210.3c0.8,0,1.5,0,2.3,0c0.8,8.1,1.7,16.1,2.5,24.1c-1,0-1.8,0-2.7,0
		c-0.3-1.1-0.6-2.1-0.9-3.1c-1.3-4-3.4-7.6-6.4-10.6c-3.1-3.1-6.8-5.1-11.1-5.7c-3.1-0.5-6.2-0.3-9,1.2c-4.1,2.1-5.9,6.1-5.4,10.3
		c0.3,3.3,2.1,5.9,4.4,8.1c2.1,2.1,4.5,3.7,7,5.3c3.9,2.4,7.9,4.8,11.9,7.2c2.8,1.7,5.4,3.6,7.8,5.9c3.5,3.3,6,7.1,6.8,11.9
		c0.8,4.8,0,9.3-2.5,13.4c-3,4.9-7.3,7.9-12.8,9.5c-3.5,1-7,1.3-10.6,1.1c-3.3-0.2-6.5-1.1-9.6-2.1c-1.6-0.5-3.1-1.1-4.7-1.5
		c-2.7-0.7-4.6,0.7-4.9,3.1c0,0.1,0,0.2-0.1,0.4c-0.8,0-1.6,0-2.4,0c-1.1-8-2.3-16-3.4-24c0.9,0,1.7,0,2.5,0
		c0.6,1.5,1.3,2.9,1.9,4.3c1.8,3.8,4.1,7.4,7.3,10.3c3.2,2.9,6.9,4.7,11.2,5.3c2.7,0.4,5.3,0.3,7.9-0.5c5.3-1.6,8.9-6.4,8.9-11.9
		c0-2-0.1-3.9-0.9-5.8c-0.9-2.1-2.3-3.7-3.9-5.2c-3.7-3.4-8-6-12.3-8.6c-3.3-2-6.7-4.1-9.9-6.2c-2.4-1.6-4.4-3.5-6-5.8
		c-1.8-2.5-2.9-5.4-3.2-8.5c-0.3-2.9-0.2-5.9,0.7-8.7c1.5-5.1,4.8-8.7,9.5-11c3.9-1.9,8-2.6,12.3-2.3c2.8,0.2,5.4,1.1,8,2
		c1.6,0.6,3.2,1.2,4.9,1.6c2.4,0.6,4.3-0.5,4.9-3C401.2,210.7,401.2,210.5,401.3,210.3z"/>
	<path id="XMLID_6_" class="st1" d="M280.9,210.3c0.8,0,1.5,0,2.3,0c0.8,8,1.7,16.1,2.5,24.1c-1,0-1.8,0-2.7,0
		c-0.2-0.8-0.4-1.6-0.7-2.3c-1.4-4.5-3.6-8.5-7.1-11.8c-3.6-3.4-7.8-5.3-12.8-5.5c-3.3-0.1-6.4,0.7-9,2.9c-2,1.7-3,3.9-3.3,6.4
		c-0.5,4.4,1.4,7.8,4.4,10.7c2.4,2.3,5.2,4.2,8.1,5.9c4.5,2.7,9,5.4,13.3,8.2c3.2,2.1,6.1,4.7,8.4,7.8c2.9,3.9,4.2,8.2,3.8,13
		c-0.4,5.5-2.9,10.1-7.1,13.7c-3.4,2.8-7.3,4.4-11.6,5.1c-5.9,1-11.5,0.2-17.1-1.8c-1.8-0.6-3.6-1.2-5.4-1.6c-1.9-0.4-3.6,0.8-4,2.8
		c-0.1,0.3-0.1,0.6-0.2,0.9c-0.8,0-1.5,0-2.4,0c-1.1-8-2.2-15.9-3.4-24c0.9,0,1.7,0,2.5,0c0.5,1.2,1,2.4,1.6,3.5
		c1.5,3.3,3.3,6.3,5.6,9c3.5,4,7.8,6.6,13.2,7.4c3.3,0.5,6.6,0.3,9.6-1.1c3.9-1.8,6.3-4.9,7-9.2c0.5-3,0.3-6-1.2-8.7
		c-1.1-2.1-2.7-3.7-4.5-5.2c-4-3.3-8.4-6-12.9-8.6c-3.4-2-6.9-4-10-6.6c-3.8-3.1-6.5-6.9-7.3-11.8c-0.9-5.7-0.1-11,3.5-15.7
		c2.5-3.3,5.8-5.3,9.7-6.5c3-0.9,6-1.2,9.1-1c2.6,0.2,5,1,7.4,1.8c1.8,0.6,3.6,1.3,5.5,1.8c2.5,0.6,4.3-0.5,5-3
		C280.7,210.7,280.8,210.5,280.9,210.3z"/>
	<path id="XMLID_7_" class="st1" d="M342.9,285.3c0,0.7,0,1.3,0,2c-11.6,0-23.2,0-34.8,0c0-0.7,0-1.3,0-2c0.6,0,1.2-0.1,1.7-0.1
		c1.7-0.2,3.3-0.4,5-0.7c3.2-0.7,4.3-2.8,4.5-5.7c0.2-2.4,0.2-4.7,0.2-7.1c0-5.8,0-11.5,0-17.3c0-0.4-0.1-0.8-0.3-1.1
		c-4.1-6.1-8.3-12.2-12.5-18.3c-3-4.3-6-8.6-9.1-12.9c-1.7-2.3-3.4-4.5-5.7-6.3c-1.4-1.1-3-1.8-4.8-1.9c-0.4,0-0.7-0.1-1.1-0.2
		c0-0.6,0-1.3,0-2c10.6,0,21.2,0,31.8,0c0,0.6,0,1.2,0,1.9c-0.7,0.1-1.4,0.1-2,0.2c-1.1,0.1-2.2,0.2-3.2,0.4
		c-2.3,0.4-3.2,1.9-2.6,4.2c0.4,1.6,1.2,3,2.1,4.4c3.6,5.3,7.1,10.7,10.7,16c1.8,2.8,3.7,5.5,5.5,8.3c0.1,0.2,0.2,0.3,0.4,0.6
		c0.3-0.4,0.5-0.8,0.8-1.1c3.5-5.5,6.9-11,10.4-16.4c2-3.2,4.1-6.4,6-9.6c0.5-0.8,0.7-1.8,0.8-2.7c0.1-1.6-0.6-2.7-2.2-3.3
		c-1.5-0.6-3.1-0.7-4.7-0.7c-0.2,0-0.5,0-0.8,0c0-0.7,0-1.3,0-2c8.3,0,16.5,0,24.8,0c0,0.6,0,1.3,0,2c-0.5,0.1-0.9,0.2-1.4,0.3
		c-2.7,0.3-4.9,1.7-6.9,3.5c-2.8,2.6-5,5.7-7.1,8.9c-3.1,4.7-6.1,9.3-9.1,14c-2.6,4-5.2,7.9-7.8,11.9c-0.2,0.3-0.3,0.7-0.3,1
		c0,7.7,0,15.4,0,23.1c0,1.1,0.2,2.1,0.3,3.2c0.4,2.9,2.2,4.6,5,5.1c1.8,0.3,3.7,0.4,5.5,0.6C342.3,285.3,342.6,285.3,342.9,285.3z"
		/>
	<path id="XMLID_10_" class="st1" d="M415.4,220.7l-2-3.3h-1.2v3.3h-1v-7.3h1.7c0.9,0,1.5,0,1.9,0.1c0.5,0.1,0.9,0.3,1.2,0.7
		c0.3,0.3,0.5,0.8,0.5,1.2c0,0.5-0.1,0.9-0.3,1.2c-0.1,0.2-0.5,0.7-1.3,0.8l-0.2,0l2,3.3H415.4z M412.3,216.5l1.3,0
		c0.5,0,0.9,0,1.2-0.1c0.2-0.1,0.4-0.2,0.6-0.4c0.1-0.2,0.2-0.4,0.2-0.6c0-0.2-0.1-0.4-0.2-0.6c-0.1-0.2-0.3-0.3-0.5-0.4
		c-0.2-0.1-0.6-0.1-1.2-0.1h-1.3V216.5z"/>
	<path id="XMLID_13_" class="st1" d="M413.5,223.5c-3.6,0-6.5-2.9-6.5-6.5c0-3.6,2.9-6.5,6.5-6.5s6.5,2.9,6.5,6.5
		C420,220.7,417.1,223.5,413.5,223.5z M413.5,211.6c-3,0-5.5,2.5-5.5,5.5c0,3,2.5,5.5,5.5,5.5c3,0,5.5-2.5,5.5-5.5
		C419,214.1,416.5,211.6,413.5,211.6z"/>
</g>
</svg>
