<svg xmlns="http://www.w3.org/2000/svg" viewBox="0 0 198.28 100.21"><title>logoblackAsset 1</title><g id="Layer_2" data-name="Layer 2"><g id="Layer_1-2" data-name="Layer 1"><path d="M62.55,22.08c-5.13,5.55-5.2,6.64-.82,12.5l-9.32-2.12q-13.8-3.15-27.61-6.29a15,15,0,0,1-7.92-4.44A234.3,234.3,0,0,1,1.34,3.11c-.18-.25-.34-.53-.68-1Z" transform="translate(-0.66 -2.04)"/><path d="M137.88,34.57c4.36-6.22,4.31-6.82-.88-12.49L198.94,2a91.37,91.37,0,0,1-6,7.85C190,13.38,187,16.83,184,20.31a18.09,18.09,0,0,1-10.53,6.14c-9.54,2-19,4.32-28.52,6.5Z" transform="translate(-0.66 -2.04)"/><path d="M107.85,49.25c4,1.69,7.76,3.25,11.49,4.84.45.18.79.25,1-.3s-.34-.47-.63-.52a.93.93,0,0,1-.9-.85,1,1,0,0,1,.92-1,7.18,7.18,0,0,1,4.5.46,1.15,1.15,0,0,1,.73,1.32.92.92,0,0,1-1.22.59c-1.55-.43-2.08.46-2.39,1.7-.26,1-.76,1.12-1.74.76-4.45-1.63-8.94-3.14-13.4-4.76a1.25,1.25,0,0,0-1.43.33c-1.49,1.25-3,2.46-4.47,3.73a.87.87,0,0,1-1.37,0C97.49,54.35,96,53.23,94.6,52a1.59,1.59,0,0,0-1.82-.31c-4.29,1.55-8.61,3-12.89,4.55-.86.31-1.34.28-1.57-.66-.33-1.34-.92-2.29-2.57-1.85a.86.86,0,0,1-1.1-.57A1.1,1.1,0,0,1,75.14,52a7,7,0,0,1,5-.54,1,1,0,0,1,.65.94c0,.51-.39.76-.9.86-.25,0-.83-.27-.64.44.13.5.4.62.9.41,3.78-1.61,7.56-3.19,11.36-4.79-.29-.5-.76-.59-1.14-.79-5-2.57-9.95-5.15-14.94-7.69a2.43,2.43,0,0,1-1.34-1.56c-.56-1.76-1.25-3.47-1.82-5.23-.27-.84-.58-1.45-1.64-1.37A4.4,4.4,0,0,1,69,32.39c-.7-.22-1.41-.51-1.41-1.42s.7-1.09,1.33-1.35a3.8,3.8,0,0,1,1-.27,22.3,22.3,0,0,1,7.29.23c.63.14,1.49.23,1.52,1.09s-.79,1-1.41,1.21-1.72-.1-2,.55.33,1.61.49,2.44a3.07,3.07,0,0,0,2.23,2.39C82.44,39,86.73,40.76,91,42.58c.84.35,1.21.19,1.71-.54,3.78-5.58,10.32-5.6,14.1,0,.54.79.93.94,1.82.56,4-1.72,8-3.49,12.14-5A4.49,4.49,0,0,0,124,33.9c.34-1.64.45-1.62-1.22-1.9a7.13,7.13,0,0,1-.91-.23c-.59-.18-1.18-.48-1.14-1.16s.68-.81,1.2-.93a19.35,19.35,0,0,1,8.33-.15c.81.18,1.7.47,1.69,1.47a1.59,1.59,0,0,1-1.81,1.48c-2.23-.13-3,1.21-3.3,3-.65,3.63-2.75,5.78-6.16,7.23C116.36,44.56,112.3,47,107.85,49.25ZM95.76,42.74c.86.22,1.07,1.14,1.87.69a8.64,8.64,0,0,1,5.5-1.24C100.7,40.86,98.39,41.34,95.76,42.74Z" transform="translate(-0.66 -2.04)"/><path d="M22.08,30.29,43.86,34C52.58,35.53,61.3,37,70,38.5c1.13.19,1.77.48,2,1.81A6.73,6.73,0,0,0,75.58,45c-.11.47-.44.27-.66.26-10.57-.44-21.15-.87-31.73-1.35a49.38,49.38,0,0,1-7.27-.76,7.58,7.58,0,0,1-4.41-2.44C28.48,37.3,25.39,33.94,22.08,30.29Z" transform="translate(-0.66 -2.04)"/><path d="M177.44,30.32c-2.72,3-5.4,5.65-7.67,8.6-2.63,3.4-6.05,4.53-10.13,4.77-10.56.64-21.14.93-31.71,1.37-1.3,0-2.59.14-3.91.21,0-.56.47-.57.73-.77a6.3,6.3,0,0,0,2.79-4.16c.17-1.48,1-1.65,2.09-1.85q21-3.57,41.92-7.19C173.41,31,175.26,30.68,177.44,30.32Z" transform="translate(-0.66 -2.04)"/><path d="M100.68,102.25c0-6.55,0-12.83,0-19.11,0-1.2-.53-2.74.26-3.51s2.24-.21,3.4-.21c5.16,0,10.32,0,15.48,0a2.12,2.12,0,0,1,2,1c1,1.49,2.09,3,3.19,4.38a.83.83,0,0,1,0,1.26c-.86,1-1.62,2.17-2.45,3.23-.38.48-.47.86.07,1.24,0,0,.06.07.1.09,2.9,1.76,2.92,4.56,2.74,7.46,0,.72-.27.93-1,.91-1.36,0-2.71,0-4.07,0-.72,0-1-.25-.92-.95s0-1.63,0-2.44c0-2.14-1-3.16-3.21-3.16-2.9,0-5.79,0-8.69,0-.86,0-1.21.2-1.17,1.12.08,1.49,0,3,0,4.48,0,.51,0,.94-.57,1.24C104.25,100.19,102.59,101.17,100.68,102.25ZM112.23,88H117c.8,0,2.43-1.52,2.37-2.18a3.52,3.52,0,0,0-2.4-2h-7.31c-3.23,0-3.21,0-3.13,3.2,0,.74.2,1,1,1C109.07,87.92,110.65,88,112.23,88Z" transform="translate(-0.66 -2.04)"/><path d="M44.88,98.63c1.26-1.21,2.54-2.4,3.79-3.63a1.68,1.68,0,0,1,1.38-.36c4.25,0,8.5-.06,12.75,0A2.47,2.47,0,0,0,65,93.27c.46-.67-.88-2.08-2-2.08-2.85,0-5.7,0-8.55,0-1.8,0-3.88.51-5.34-.22S47,88.21,45.78,86.85c-.86-1-1.05-1.73-.07-2.82,1.26-1.4,2-3.5,3.53-4.36S53,79.43,55,79.42c5.07,0,10.13,0,15.2,0h1.49c-1.4,1.45-2.67,2.75-4,4.06-.4.41-.93.28-1.41.28-4.21,0-8.42.06-12.62,0a2.43,2.43,0,0,0-2.21,1.45c-.43.64,1,2.07,2.05,2.07A91,91,0,0,0,63,87.17c3.36-.35,5.58.69,7.28,3.62,1.33,2.3,1.31,2,0,4.39-1.77,3.13-4.12,4.09-7.68,3.89-5.81-.34-11.66-.1-17.49-.1Z" transform="translate(-0.66 -2.04)"/><path d="M141.36,99c-2.35,0-4.71,0-7.06,0a2.59,2.59,0,0,1-1.68-.66c-3-2.26-4.5-5.13-3.77-9a1.23,1.23,0,0,0,0-.54c-.75-3.79.78-6.59,3.76-8.81a2.36,2.36,0,0,1,1.55-.63c4.84,0,9.68,0,14.53,0,1.27,0,5.29,4,5.3,5.24,0,3,0,6,0,9.08a1.4,1.4,0,0,1-.55,1.3.7.7,0,0,0-.18.2A8.41,8.41,0,0,1,144.34,99,18.51,18.51,0,0,0,141.36,99Zm0-4.34c1.86,0,3.71,0,5.57,0,.76,0,1.15-.1,1.13-1-.05-3,0-6,0-9,0-.68-.17-1-.91-1q-5.76,0-11.54,0c-.71,0-.92.24-.92.94,0,3,0,6,0,8.95,0,.89.35,1,1.12,1C137.68,94.61,139.54,94.64,141.39,94.64Z" transform="translate(-0.66 -2.04)"/><path d="M98.08,79.78c-1.2,1.16-2.43,2.29-3.6,3.48a2,2,0,0,1-1.61.5c-3.58,0-7.15,0-10.73,0-1,0-1.28.31-1.25,1.29.06,2.71.08,5.43,0,8.14,0,1.15.21,1.53,1.46,1.51,5-.08,10,0,15,0-1.39,1.46-2.69,2.85-4,4.19-.18.17-.6.14-.9.14q-6.12,0-12.22,0A2.43,2.43,0,0,1,80,99c-1.16-.11-5-4.26-5-5.41,0-2.89,0-5.78,0-8.67a2.56,2.56,0,0,1,.65-1.68c2.27-3.09,5.15-4.26,9.06-3.88s8,.08,11.94.08h1.3Z" transform="translate(-0.66 -2.04)"/><path d="M129.15,47.35,161.78,46a7.9,7.9,0,0,1-2.48,3.23A30,30,0,0,1,146.43,55c-2.18.45-4.41-.22-6.6-.54-2.5-.36-5-.89-7.47-1.3-.75-.12-1-.37-1-1.21C131.47,50.18,130.29,48.89,129.15,47.35Z" transform="translate(-0.66 -2.04)"/><path d="M37.78,46,70.4,47.35c-.87,1.21-2.11,2.25-2,3.53.14,2.47-1.53,2.4-3.05,2.65q-4.81.78-9.64,1.48a10.18,10.18,0,0,1-4.54-.45A32.3,32.3,0,0,1,40.79,49.7,8.78,8.78,0,0,1,37.78,46Z" transform="translate(-0.66 -2.04)"/><path d="M118.73,33a8.36,8.36,0,0,1-3.68-1.6,2.89,2.89,0,0,1-.49-4.48,10.33,10.33,0,0,1,4.4-3.06,19.36,19.36,0,0,1,15.77.58A9.11,9.11,0,0,1,138.05,27c1.27,1.57,1.23,2.76-.18,4.16a10,10,0,0,1-3.8,2.28c.36-.44,1-1.21,1.57-1.95a1.7,1.7,0,0,0,0-2.5A9.46,9.46,0,0,0,129,25.85a19.94,19.94,0,0,0-9.83,1.4,9.7,9.7,0,0,0-1,.48c-2.42,1.4-2.46,3-.13,4.63C118.27,32.53,118.64,32.58,118.73,33Z" transform="translate(-0.66 -2.04)"/><path d="M80.71,32.94c.54-.38,1-.66,1.41-1,1.49-1.21,1.47-2.7-.09-3.79a15,15,0,0,0-7.28-2.3,15.12,15.12,0,0,0-7.84.93,5.83,5.83,0,0,0-.62.28c-3.78,2.34-3.86,3.62-.53,6.06a5.85,5.85,0,0,0,.53.34,8.43,8.43,0,0,1-5.23-3.07,2.36,2.36,0,0,1,0-2.78,7.78,7.78,0,0,1,3.21-2.84,19,19,0,0,1,17.46-.37,9.11,9.11,0,0,1,3.37,2.66,2.82,2.82,0,0,1-.29,4.11A7.3,7.3,0,0,1,80.71,32.94Z" transform="translate(-0.66 -2.04)"/><path d="M128.08,73.61c-2.72.51-5.44,1-8.17,1.5a23.59,23.59,0,0,1-5,.58A5,5,0,0,1,110,72.2c-2.14-5.44-4.31-10.87-6.45-16.3-.16-.41-.62-.9.12-1.23s.71.45.88.79A118.23,118.23,0,0,0,110.11,66c3.07,4.76,7.28,7.4,13.06,7.25,1.62,0,3.25,0,4.87,0Z" transform="translate(-0.66 -2.04)"/><path d="M71.2,73.61a48,48,0,0,1,6.62-.53c5-.14,8.3-2.88,11-6.7,2.32-3.29,3.86-7,5.66-10.59.15-.28.25-.58.4-.86s.27-.5.62-.29.48.31.39.64a7.71,7.71,0,0,1-.29.75C93.4,61.6,91.23,67.18,89,72.73a4.71,4.71,0,0,1-4.64,2.93c-3,.12-5.8-.76-8.7-1.21C74.17,74.22,72.69,73.9,71.2,73.61Z" transform="translate(-0.66 -2.04)"/><path d="M56.25,57.76c1.65-.4,3.18-.73,4.68-1.13,2.35-.62,4.7-1.26,7-2a1.15,1.15,0,0,1,1.49.41,6.77,6.77,0,0,0,3,1.71C68.76,60.89,62.33,61.32,56.25,57.76Z" transform="translate(-0.66 -2.04)"/><path d="M127,56.88c1.32-.63,2.68-.94,3.45-2.18a.59.59,0,0,1,.73-.16c3.95,1.21,7.95,2.25,12.06,3.18C138.13,61.35,132.87,61.08,127,56.88Z" transform="translate(-0.66 -2.04)"/><path d="M82.08,52.75c1.31-1.83,1-3-.82-3.28a12.61,12.61,0,0,0-7.19.52c-2.87,1.21-3,2.42-.61,4.22-1.6.24-2.7-.24-3.22-1.39a2.94,2.94,0,0,1,1-3.51c2.83-2.47,8.73-3.06,12-1.17.84.48,1.64,1.08,1.47,2.2C84.51,51.68,83.5,52.24,82.08,52.75Z" transform="translate(-0.66 -2.04)"/><path d="M117.31,52.67c-1.28-.43-2.27-1-2.43-2.33s.81-1.94,1.83-2.38a11.5,11.5,0,0,1,11.12,1,3,3,0,0,1,1.59,3.66c-.43,1.25-1.35,1.74-3.3,1.74,0-.08,0-.21,0-.24,2.83-1.54,1.78-2.83-.22-3.85a11.71,11.71,0,0,0-7.82-.71C116.47,49.86,116.23,50.85,117.31,52.67Z" transform="translate(-0.66 -2.04)"/><path d="M70.05,61.2a54.84,54.84,0,0,1,12.08-3.77,28.25,28.25,0,0,1-3.66,4C75.94,63.46,73.35,63.41,70.05,61.2Z" transform="translate(-0.66 -2.04)"/><path d="M117.44,57.43a54.07,54.07,0,0,1,11.95,3.72,6.19,6.19,0,0,1-7.49.82,10.2,10.2,0,0,1-1.17-.91A32.7,32.7,0,0,1,117.44,57.43Z" transform="translate(-0.66 -2.04)"/><path d="M80.2,63.25c1.32-2.37,2.44-4.46,3.64-6.49.45-.77,1.37-.92,2.23-1.34-.27,2.21-.71,4.28-.87,6.39a1.48,1.48,0,0,1-1.53,1.44C82.61,63.27,81.54,63.25,80.2,63.25Z" transform="translate(-0.66 -2.04)"/><path d="M113.53,55.37c3.5,1.46,3.69,5.14,5.87,7.63a15,15,0,0,1-3.69.22,1.36,1.36,0,0,1-1.3-1.19C114.07,59.87,113.83,57.7,113.53,55.37Z" transform="translate(-0.66 -2.04)"/></g></g></svg>