<svg xmlns="http://www.w3.org/2000/svg" xmlns:xlink="http://www.w3.org/1999/xlink" width="16" height="16" viewBox="0 0 16 16"><defs><style>.a{fill:url(#a);}.b{fill:#a7a7a7;}</style><linearGradient id="a" x1="-4.904" y1="47.981" x2="-5.279" y2="52.476" gradientUnits="objectBoundingBox"><stop offset="0" stop-color="#4cc0b8"/><stop offset="1" stop-color="#c1f1c8"/></linearGradient></defs><g transform="translate(0)"><path class="a" d="M689.1,247.326a7.99,7.99,0,1,1,4.419.681A8,8,0,0,1,689.1,247.326Zm6.117-13.142a6.5,6.5,0,1,0,3.7,5.044h0A6.5,6.5,0,0,0,695.214,234.184Z" transform="translate(-684.472 -232.076)"/></g><path class="b" d="M4.626,15.25A7.958,7.958,0,1,1,8,16,8,8,0,0,1,4.626,15.25ZM7.151,1.555a6.5,6.5,0,1,0,1.7,12.89A6.5,6.5,0,0,0,10.742,2.108,6.456,6.456,0,0,0,8,1.5,6.535,6.535,0,0,0,7.151,1.555Z" transform="translate(0 0)"/></svg>