<svg xmlns="http://www.w3.org/2000/svg" xmlns:xlink="http://www.w3.org/1999/xlink" width="10.001" height="10" viewBox="0 0 10.001 10"><defs><style>.a{fill:url(#a);}.b{fill:#a7a7a7;}</style><linearGradient id="a" x1="-4.904" y1="47.981" x2="-5.279" y2="52.476" gradientUnits="objectBoundingBox"><stop offset="0" stop-color="#4cc0b8"/><stop offset="1" stop-color="#c1f1c8"/></linearGradient></defs><g transform="translate(-0.329)"><g transform="translate(0.329)"><path class="a" d="M430.686,154.579a4.994,4.994,0,1,1,2.762.426A5,5,0,0,1,430.686,154.579Zm3.823-8.214a4.062,4.062,0,1,0,2.314,3.152h0A4.065,4.065,0,0,0,434.509,146.365Z" transform="translate(-427.795 -145.048)"/></g><path class="b" d="M2.89,9.531A4.977,4.977,0,1,1,5,10,5,5,0,0,1,2.89,9.531ZM4.469.972A4.063,4.063,0,0,0,5.531,9.029,4.063,4.063,0,0,0,6.714,1.318,4.032,4.032,0,0,0,5,.937,4.074,4.074,0,0,0,4.469.972Z" transform="translate(0.33 0)"/></g></svg>