<svg xmlns="http://www.w3.org/2000/svg" xmlns:xlink="http://www.w3.org/1999/xlink" width="23.135" height="23.135" viewBox="0 0 23.135 23.135"><defs><style>.a{fill:none;}.b{fill:#a7a7a7;}.c{clip-path:url(#a);}</style><clipPath id="a"><rect class="a" width="16.36" height="16.36" transform="matrix(0.698, -0.716, 0.716, 0.698, 0, 11.715)"/></clipPath></defs><g class="c" transform="translate(0)"><g transform="translate(0 -20.823)"><path d="M669.232,141.946l20.5-.724-1.091-2.954-18.349.648Z" transform="translate(-667.933 -113.109)"/><path d="M667.933,145.647l.66,1.787,21.832-.771.643-1.833-.431-1.167-22.284.787Z" transform="translate(-667.933 -113.109)"/><path d="M671.174,136.412l16.568-.585-1.091-2.954-14.414.509Z" transform="translate(-667.933 -113.109)"/><path d="M677,119.809l4.764-.168-1.091-2.954-2.609.092Z" transform="translate(-667.933 -113.109)"/><path d="M673.116,130.878l12.634-.446-1.091-2.954-10.479.37Z" transform="translate(-667.933 -113.109)"/><path d="M670.585,152.829l17.9-.632,1.063-3.03-20.051.708Z" transform="translate(-667.933 -113.109)"/><path d="M675.059,125.344l8.7-.307-1.091-2.954-6.544.231Z" transform="translate(-667.933 -113.109)"/><path d="M679.353,113.109l-.409,1.166.829-.029Z" transform="translate(-667.933 -113.109)"/><path d="M672.577,158.224l13.962-.493,1.063-3.03-16.116.569Z" transform="translate(-667.933 -113.109)"/></g></g><path class="b" d="M9.651,21.123l4.169-.148-2.105,2.159ZM4.24,15.848l15.1-.534-3.021,3.1L7.2,18.736ZM0,11.714,1.193,10.49l20.254-.716L23,11.287l-.15.428-1.013,1.04-20.042.708ZM6.711,4.829,16.037,4.5,19,7.388,3.69,7.929ZM11.42,0l2.168,2.113-4.379.156Z" transform="translate(0 0)"/></svg>