<svg xmlns="http://www.w3.org/2000/svg" xmlns:xlink="http://www.w3.org/1999/xlink" width="22.274" height="22.274" viewBox="0 0 22.274 22.274"><defs><style>.a{fill:none;}.b{fill:#a7a7a7;}.c{clip-path:url(#a);}</style><clipPath id="a"><rect class="a" width="16.36" height="16.36" transform="translate(0 8.006) rotate(-29.3)"/></clipPath></defs><g class="c" transform="translate(0)"><g transform="translate(0 -14.232)"><path d="M1185.986,406.84l19.74,15.411-.746-3.69-17.666-13.792Z" transform="translate(-1184.363 -387.131)"/><path d="M1184.363,409.37l.451,2.232,21.019,16.41.8-1.253-.294-1.458-21.454-16.75Z" transform="translate(-1184.363 -387.131)"/><path d="M1188.413,403.058l15.952,12.454-.746-3.69-13.877-10.834Z" transform="translate(-1184.363 -387.131)"/><path d="M1195.693,391.711l4.587,3.581-.746-3.69-2.512-1.961Z" transform="translate(-1184.363 -387.131)"/><path d="M1190.839,399.275l12.163,9.5-.745-3.69-10.089-7.877Z" transform="translate(-1184.363 -387.131)"/><path d="M1186.176,418.342l17.23,13.452,1.328-2.071-19.3-15.071Z" transform="translate(-1184.363 -387.131)"/><path d="M1193.266,395.493l8.375,6.538-.746-3.69-6.3-4.919Z" transform="translate(-1184.363 -387.131)"/><path d="M1198.63,387.131l-.511.8.8.623Z" transform="translate(-1184.363 -387.131)"/><path d="M1187.538,425.082l13.442,10.494,1.328-2.071-15.516-12.114Z" transform="translate(-1184.363 -387.131)"/></g></g><path class="b" d="M7.547,21.086l-3.1-5.533,6.222,4.858-2.317,1.3Zm-5.669-10.1L0,7.636l.915-.513L14.9,18.037l-2.317,1.3Zm.95-4.935,2.317-1.3L19.126,15.663l-2.317,1.3ZM7.06,3.674l2.317-1.3,9.879,7.713L20,13.777ZM11.291,1.3,13.606,0l1.545,1.206,3.1,5.532Z" transform="translate(0 0.371)"/></svg>