<svg xmlns="http://www.w3.org/2000/svg" xmlns:xlink="http://www.w3.org/1999/xlink" width="18.189" height="18" viewBox="0 0 18.189 18"><defs><style>.a{fill:url(#a);}.b{fill:url(#b);}.c{fill:url(#c);}.d{fill:url(#d);}.e{fill:url(#e);}.f{fill:url(#f);}.g{fill:url(#g);}.h{fill:url(#h);}.i{fill:#a7a7a7;}</style><linearGradient id="a" x1="-41.969" y1="248.371" x2="-45.278" y2="272.271" gradientUnits="objectBoundingBox"><stop offset="0" stop-color="#4cc0b8"/><stop offset="1" stop-color="#c1f1c8"/></linearGradient><linearGradient id="b" x1="-38.933" y1="237.4" x2="-42.147" y2="260.428" xlink:href="#a"/><linearGradient id="c" x1="-22.682" y1="387.696" x2="-24.536" y2="425.237" xlink:href="#a"/><linearGradient id="d" x1="-23.673" y1="399.538" x2="-25.591" y2="438.111" xlink:href="#a"/><linearGradient id="e" x1="-44.243" y1="230.889" x2="-47.876" y2="253.283" xlink:href="#a"/><linearGradient id="f" x1="-47.183" y1="241.633" x2="-50.912" y2="264.886" xlink:href="#a"/><linearGradient id="g" x1="-22.612" y1="449.905" x2="-24.479" y2="493.492" xlink:href="#a"/><linearGradient id="h" x1="-23.224" y1="451.561" x2="-25.091" y2="495.154" xlink:href="#a"/></defs><g transform="translate(0 0)"><path class="a" d="M1267.251,482.59a.723.723,0,0,1-.349-.961l2-4.27a.722.722,0,1,1,1.308.612l-2,4.27A.723.723,0,0,1,1267.251,482.59Z" transform="translate(-1256.823 -476.644)"/><path class="b" d="M1261.789,494.276a.722.722,0,0,1-.349-.959l2.1-4.489a.721.721,0,1,1,1.306.612l-2.1,4.487A.723.723,0,0,1,1261.789,494.276Z" transform="translate(-1256.823 -476.644)"/><path class="c" d="M1273.5,490.027l-4.694-2.2a.722.722,0,1,1,.61-1.308l4.7,2.2a.722.722,0,0,1-.612,1.308Z" transform="translate(-1256.823 -476.644)"/><path class="d" d="M1262.027,484.665l-4.489-2.1a.722.722,0,0,1,.612-1.308l4.487,2.1a.721.721,0,1,1-.61,1.306Z" transform="translate(-1256.823 -476.644)"/><path class="e" d="M1268.522,494.575a.729.729,0,0,1-.372-.407l-1.69-4.656a.722.722,0,0,1,1.357-.493l1.69,4.656a.721.721,0,0,1-.984.9Z" transform="translate(-1256.823 -476.644)"/><path class="f" d="M1264.122,482.45a.718.718,0,0,1-.372-.407l-1.608-4.431a.721.721,0,1,1,1.355-.493l1.61,4.431a.722.722,0,0,1-.984.9Z" transform="translate(-1256.823 -476.644)"/><path class="g" d="M1257.24,489.3a.723.723,0,0,1,.058-1.333l4.656-1.69a.722.722,0,0,1,.493,1.357l-4.656,1.69A.72.72,0,0,1,1257.24,489.3Z" transform="translate(-1256.823 -476.644)"/><path class="h" d="M1269.14,484.983a.723.723,0,0,1,.059-1.333l4.656-1.688a.721.721,0,1,1,.493,1.355l-4.658,1.691A.727.727,0,0,1,1269.14,484.983Z" transform="translate(-1256.823 -476.644)"/></g><path class="i" d="M11.7,17.932a.728.728,0,0,1-.373-.407L9.637,12.868a.721.721,0,1,1,1.356-.492l1.689,4.656a.724.724,0,0,1-.431.925.736.736,0,0,1-.246.043A.729.729,0,0,1,11.7,17.932Zm-6.733-.3a.723.723,0,0,1-.349-.959l2.1-4.488a.721.721,0,1,1,1.306.611l-2.1,4.487a.724.724,0,0,1-.655.417A.715.715,0,0,1,4.966,17.633Zm11.706-4.25-4.694-2.2a.722.722,0,1,1,.61-1.308l4.7,2.2a.722.722,0,0,1-.612,1.308ZM.416,12.659a.723.723,0,0,1,.058-1.333L5.131,9.636a.721.721,0,0,1,.492,1.356L.967,12.682a.712.712,0,0,1-.246.044A.722.722,0,0,1,.416,12.659Zm11.9-4.319a.723.723,0,0,1,.059-1.334l4.656-1.687a.721.721,0,1,1,.493,1.354L12.868,8.364a.722.722,0,0,1-.244.043A.744.744,0,0,1,12.317,8.339ZM5.2,8.022.715,5.925a.722.722,0,0,1,.611-1.308l4.487,2.1A.721.721,0,0,1,5.2,8.022Zm5.225-2.074a.723.723,0,0,1-.348-.961l2-4.27a.722.722,0,1,1,1.308.612l-2,4.27a.724.724,0,0,1-.656.417A.714.714,0,0,1,10.428,5.947ZM7.3,5.806A.719.719,0,0,1,6.926,5.4L5.318.969A.721.721,0,1,1,6.673.475l1.61,4.431a.721.721,0,0,1-.985.9Z" transform="translate(0.189)"/></svg>