<svg xmlns="http://www.w3.org/2000/svg" xmlns:xlink="http://www.w3.org/1999/xlink" width="13.656" height="14.923" viewBox="0 0 13.656 14.923"><defs><style>.a{fill:url(#a);}.b{fill:#a7a7a7;}</style><linearGradient id="a" x1="93.114" y1="-82.532" x2="92.475" y2="-75.512" gradientUnits="objectBoundingBox"><stop offset="0" stop-color="#4cc0b8"/><stop offset="1" stop-color="#c1f1c8"/></linearGradient></defs><g transform="translate(0 0)"><path class="a" d="M1381.5,554.1a1.088,1.088,0,0,1,1.432-.449l11.473,5.61a1.09,1.09,0,0,1,.129,1.885l-10.595,7.13a1.091,1.091,0,0,1-1.7-.83l-.877-12.74A1.074,1.074,0,0,1,1381.5,554.1Zm10.248,6.292-8.076-3.949.618,8.969Z" transform="translate(-1381.365 -553.535)"/></g><path class="b" d="M1.49,14.813a1.1,1.1,0,0,1-.61-.906L0,1.166A1.071,1.071,0,0,1,.139.56,1.088,1.088,0,0,1,1.57.111l11.473,5.61a1.09,1.09,0,0,1,.13,1.885L2.578,14.737a1.093,1.093,0,0,1-1.088.076Zm1.439-2.941,7.457-5.02L2.31,2.9Z" transform="translate(0)"/></svg>