<svg xmlns="http://www.w3.org/2000/svg" xmlns:xlink="http://www.w3.org/1999/xlink" width="17.18" height="16.632" viewBox="0 0 17.18 16.632"><defs><style>.a{fill:url(#a);}.b{fill:#a7a7a7;}</style><linearGradient id="a" x1="93.114" y1="-82.532" x2="92.475" y2="-75.512" gradientUnits="objectBoundingBox"><stop offset="0" stop-color="#4cc0b8"/><stop offset="1" stop-color="#c1f1c8"/></linearGradient></defs><g transform="matrix(0.438, 0.899, -0.9, 0.436, 11.894, 0)"><path class="a" d="M.123.5A.962.962,0,0,1,1.389.1L11.541,5.068a.966.966,0,0,1,.115,1.67L2.281,13.054a.965.965,0,0,1-1.5-.736L0,1.033A.953.953,0,0,1,.123.5ZM9.19,6.069l-7.146-3.5.547,7.944Z"/></g><path class="b" d="M10.266,13.1.482,7.421a.964.964,0,0,1,0-1.672L10.3.128A.951.951,0,0,1,10.837,0a.964.964,0,0,1,.912.966l-.03,11.3a.967.967,0,0,1-1.453.832ZM2.9,6.593l6.888,3.994.022-7.952Z" transform="translate(0.664 0.325)"/></svg>