<svg xmlns="http://www.w3.org/2000/svg" xmlns:xlink="http://www.w3.org/1999/xlink" width="12.59" height="12.169" viewBox="0 0 12.59 12.169"><defs><style>.a{fill:url(#a);}.b{fill:#a7a7a7;}</style><linearGradient id="a" x1="93.114" y1="-82.532" x2="92.475" y2="-75.512" gradientUnits="objectBoundingBox"><stop offset="0" stop-color="#4cc0b8"/><stop offset="1" stop-color="#c1f1c8"/></linearGradient></defs><g transform="matrix(0.408, 0.913, -0.913, 0.408, 8.939, 0)"><path class="a" d="M.091.367A.714.714,0,0,1,1.03.073l7.526,3.68A.715.715,0,0,1,8.641,4.99L1.691,9.667A.716.716,0,0,1,.577,9.122L0,.765A.705.705,0,0,1,.091.367ZM6.813,4.494,1.516,1.9l.405,5.883Z"/></g><path class="b" d="M7.44,9.694l-7.1-4.44A.716.716,0,0,1,.38,4.015L7.777.084A.7.7,0,0,1,8.176,0a.7.7,0,0,1,.316.105A.715.715,0,0,1,8.828.74L8.535,9.113a.716.716,0,0,1-1.1.581Zm-5.293-5,5,3.125L7.353,1.93Z" transform="translate(0.464 0.23)"/></svg>