<svg xmlns="http://www.w3.org/2000/svg" width="53.245" height="75.93" viewBox="0 0 53.245 75.93"><defs><style>.a{fill:#07f;}</style></defs><path class="a" d="M73.523,74.916a1.122,1.122,0,0,0,2.188-.347v-.774a1.122,1.122,0,0,0-1.121-1.121H72.026V67.784A1.122,1.122,0,0,0,70.9,66.663h-.649l.98-4.538c3.8-15.681,4.4-27.467,1.785-35.031A15.376,15.376,0,0,0,62.856,16.848,19.377,19.377,0,0,0,59.7,5.225a1.121,1.121,0,0,0-1.916.136,46.311,46.311,0,0,1-5.72,8.474c-7.379-.565-10.952,3.412-13.337,6.064a8.447,8.447,0,0,1-2.457,2.2c-5.333,2.3-14.8,10.926-13.719,14.174.607,1.817,3.735,5.575,6.592,6.147a3.063,3.063,0,0,0,3.045-.989c2.6-3.215,4.952-3.358,8.519-3.574a37.779,37.779,0,0,0,6.045-.727,10.26,10.26,0,0,1-2.022,5.977,48.526,48.526,0,0,0-4.461,6.166A1.122,1.122,0,1,0,42.2,50.423a46.4,46.4,0,0,1,4.258-5.88,12.732,12.732,0,0,0,2.554-7.882,14.646,14.646,0,0,0,7.153-3.3,1.123,1.123,0,1,0-1.353-1.793A12.7,12.7,0,0,1,47.7,34.6c-.026,0-.049.013-.074.019s-.04,0-.06.009a32.61,32.61,0,0,1-6.993.994c-3.708.225-6.911.419-10.1,4.37a.807.807,0,0,1-.887.236c-1.871-.376-4.429-3.332-4.892-4.619.011-1.656,7-9.087,12.423-11.427A9.58,9.58,0,0,0,40.4,21.4c2.395-2.663,5.377-5.977,12-5.281a1.112,1.112,0,0,0,.935-.347,43.454,43.454,0,0,0,5.5-7.654,18.344,18.344,0,0,1,1.73,9.407,1.121,1.121,0,0,0,.809,1.217c7.267,2.042,15.968,8.706,7.679,42.885l-1.089,5.04H39.977l-.793-3.8a13.534,13.534,0,0,1-.06-4.366,1.122,1.122,0,0,0-2.22-.32,15.8,15.8,0,0,0,.079,5.115l.7,3.372h-.66a1.122,1.122,0,0,0-1.121,1.121V72.67H33.343a1.122,1.122,0,0,0-1.121,1.121v5.767a1.122,1.122,0,0,0,1.121,1.121H74.591a1.122,1.122,0,0,0,1.121-1.121v-.934a1.121,1.121,0,0,0-2.227-.187H34.463V74.913ZM38.151,68.906H69.784v3.768H38.149Zm-.31-14.5c.169-.486.36-.98.567-1.47a1.121,1.121,0,1,1,2.066.873c-.188.445-.362.9-.513,1.335a1.121,1.121,0,1,1-2.115-.739Zm30.575-2.984a1.121,1.121,0,0,1-.928-1.286c.373-2.307.651-4.513.827-6.554a1.121,1.121,0,0,1,2.234.192c-.179,2.1-.465,4.357-.846,6.72a1.122,1.122,0,0,1-1.108.941,1.153,1.153,0,0,1-.18-.013Z" transform="translate(-22.468 -4.75)"/></svg>