<svg xmlns="http://www.w3.org/2000/svg" width="78.979" height="78.979" viewBox="0 0 78.979 78.979"><defs><style>.a{fill:#07f;}</style></defs><path class="a" d="M73.181,18.887l3.83-3.83a2.314,2.314,0,0,0-1.442-3.942l-7.106-.6-.6-7.106a2.314,2.314,0,0,0-3.941-1.441L60.092,5.8A39.491,39.491,0,0,0,11.565,67.414,39.491,39.491,0,0,0,73.181,18.887Zm-9.165-6.035a2.315,2.315,0,0,0,2.111,2.111l4.088.345-5.534,5.534-6.035-.509L58.137,14.3l5.534-5.534ZM47.356,39.49a7.874,7.874,0,1,1-4.188-6.951l-5.315,5.315a2.314,2.314,0,1,0,3.272,3.272l5.315-5.315a7.814,7.814,0,0,1,.916,3.679Zm-.825-10.315A12.509,12.509,0,1,0,49.8,32.448l6.607-6.607a21.776,21.776,0,1,1-3.273-3.273ZM64.14,64.141a34.862,34.862,0,1,1-49.3-49.3A34.878,34.878,0,0,1,56.715,9.175l-2.61,2.61a2.314,2.314,0,0,0-.677,1.577c0,.084,0,.169.007.254l.312,3.692a26.4,26.4,0,1,0,7.925,7.925l3.692.312c.065,0,.13.008.195.008l.033,0c.031,0,.061,0,.092,0,.05,0,.1-.006.15-.012l.092-.014c.049-.008.1-.017.145-.028l.091-.023c.047-.013.093-.027.14-.043l.089-.032c.045-.017.09-.037.134-.058.028-.013.057-.025.085-.04.045-.023.088-.048.131-.074l.077-.046c.046-.03.09-.063.134-.1.02-.016.042-.03.061-.046a2.293,2.293,0,0,0,.181-.162l2.61-2.61A34.878,34.878,0,0,1,64.14,64.141Zm0,0" transform="translate(0.001 -0.001)"/></svg>