<svg xmlns="http://www.w3.org/2000/svg" width="81.373" height="65.161" viewBox="0 0 81.373 65.161"><defs><style>.a{fill:#07f;}</style></defs><g transform="translate(-522.441 -3810.249)"><g transform="translate(522.441 3810.249)"><g transform="translate(0 0)"><path class="a" d="M74.1,55.782a1.253,1.253,0,0,1-.734.108H53.9c-.577,0-.8.157-.714.724v.059a2.388,2.388,0,0,0,1.556,2.77c1.957.979,3.729,2.055,5.578,3.092a1.353,1.353,0,0,1-.7,2.6H26.756a1.39,1.39,0,0,1-1.478-.979,1.321,1.321,0,0,1,.8-1.576c2.045-1.116,4.081-2.27,6.156-3.337a1.889,1.889,0,0,0,1.145-1.957c0-1.409,0-1.409-1.4-1.409H4.443A4.286,4.286,0,0,1,0,51.456V4.717A4.785,4.785,0,0,1,4.893,0C15.306.049,25.738,0,36.209,0H76.225a4.962,4.962,0,0,1,3.523,1.174A4.423,4.423,0,0,1,81.334,4.58q0,16.637,0,33.273v9.953a1.321,1.321,0,0,1-.117.793Q77.713,52.249,74.1,55.782Zm-33.44-8.269H76.519c.577,0,.734-.157.724-.724V4.893c0-.832,0-.832-.851-.832H4.8c-.577,0-.724.166-.695.7s0,1.331,0,1.957V46.71c0,.8,0,.8.822.8Z" transform="translate(0.002 0.01)"/><path class="a" d="M75.72,56.844q3.631-3.523,7.124-7.144s.088,0,.088.078a18.26,18.26,0,0,1-.088,3.729,4.179,4.179,0,0,1-4.179,3.415,12.977,12.977,0,0,1-2.946-.078Z" transform="translate(-1.616 -1.053)"/><path class="a" d="M38.181,36.946c-6.85-.069-15.4-3.122-22.929-9.2a2.045,2.045,0,0,1,0-3.288,41.494,41.494,0,0,1,14.6-7.663A40.789,40.789,0,0,1,57.8,18.861,41.425,41.425,0,0,1,65,23.1c.675.48,1.321.979,1.957,1.527a2.016,2.016,0,0,1-.186,3.1,41.191,41.191,0,0,1-8.26,5.265C53.154,35.556,47.057,36.956,38.181,36.946ZM40.97,16.718A9.385,9.385,0,1,0,50.385,26a9.385,9.385,0,0,0-9.414-9.287Z" transform="translate(-0.306 -0.316)"/><path class="a" d="M66.569,7.08h6.948a1.527,1.527,0,0,1,1.752,1.713v6.753a1.556,1.556,0,0,1-2.936.871,1.86,1.86,0,0,1-.137-.861V10.8c0-.548-.137-.7-.695-.695H59.758a2.055,2.055,0,0,1-1.155-.2,1.517,1.517,0,0,1,.832-2.838Z" transform="translate(-1.234 -0.141)"/><path class="a" d="M16.1,45.5H9.152c-1.194,0-1.742-.558-1.742-1.762V37.042c0-1.057.558-1.7,1.468-1.722a1.507,1.507,0,0,1,1.585,1.693V41.7c0,.636.2.763.773.754H23.068A1.523,1.523,0,0,1,24.8,43.932,1.478,1.478,0,0,1,23.234,45.5Z" transform="translate(-0.156 -0.745)"/><path class="a" d="M46.117,26.257a4.639,4.639,0,1,1-4.609-4.7,4.639,4.639,0,0,1,4.609,4.7Z" transform="translate(-0.785 -0.451)"/></g></g></g></svg>