<svg xmlns="http://www.w3.org/2000/svg" xmlns:xlink="http://www.w3.org/1999/xlink" width="750" height="534" viewBox="0 0 750 534"><defs><style>.a,.d{fill:#fff;}.b,.c{fill:#323335;}.b{font-size:18px;font-family:Merriweather-Regular, Merriweather;}.b,.f{letter-spacing:0.01em;}.c{font-size:30px;font-family:Montserrat-SemiBold, Montserrat;font-weight:600;letter-spacing:-0.02em;}.d,.e{stroke:#07f;stroke-width:2px;}.e,.f,.g{fill:#07f;}.e{opacity:0;}.f{font-size:22px;font-family:Montserrat-Regular, Montserrat;}.h{stroke:none;}.i{fill:none;}.j{filter:url(#c);}.k{filter:url(#a);}</style><filter id="a" x="0" y="0" width="750" height="534" filterUnits="userSpaceOnUse"><feOffset dx="10" dy="20" input="SourceAlpha"/><feGaussianBlur stdDeviation="30" result="b"/><feFlood flood-opacity="0.161"/><feComposite operator="in" in2="b"/><feComposite in="SourceGraphic"/></filter><filter id="c" x="242" y="381" width="258" height="119" filterUnits="userSpaceOnUse"><feOffset dx="5" dy="10" input="SourceAlpha"/><feGaussianBlur stdDeviation="10" result="d"/><feFlood flood-opacity="0.161"/><feComposite operator="in" in2="d"/><feComposite in="SourceGraphic"/></filter></defs><g transform="translate(-894 -1484)"><g class="k" transform="matrix(1, 0, 0, 1, 894, 1484)"><rect class="a" width="570" height="354" rx="5" transform="translate(80 70)"/></g><text class="b" transform="translate(1033 1739.51)"><tspan x="50.544" y="18">Lorem ipsum dolor sit amet, consetetur </tspan><tspan x="3.816" y="46">sadipscing elitr, sed diam nonumy eirmod tempor </tspan><tspan x="5.193" y="74">invidunt ut labore et dolore magna aliquyam erat, </tspan><tspan x="4.302" y="102">sed diam voluptua. At vero eos et accusam et justo</tspan></text><text class="c" transform="translate(1260.2 1703.936)"><tspan x="-77.715" y="0">Our Vision</tspan></text><g transform="translate(1161 1885)"><g class="j" transform="matrix(1, 0, 0, 1, -267, -401)"><g class="d" transform="translate(267 401)"><rect class="h" width="198" height="59" rx="29.5"/><rect class="i" x="1" y="1" width="196" height="57" rx="28.5"/></g></g><g class="e" transform="translate(2 16)"><rect class="h" width="6" height="27" rx="3"/><rect class="i" x="1" y="1" width="4" height="25" rx="2"/></g><text class="f" transform="translate(99 37)"><tspan x="-60.478" y="0">Read More</tspan></text></g><path class="g" d="M73.181,18.887l3.83-3.83a2.314,2.314,0,0,0-1.442-3.942l-7.106-.6-.6-7.106a2.314,2.314,0,0,0-3.941-1.441L60.092,5.8A39.491,39.491,0,0,0,11.565,67.414,39.491,39.491,0,0,0,73.181,18.887Zm-9.165-6.035a2.315,2.315,0,0,0,2.111,2.111l4.088.345-5.534,5.534-6.035-.509L58.137,14.3l5.534-5.534ZM47.356,39.49a7.874,7.874,0,1,1-4.188-6.951l-5.315,5.315a2.314,2.314,0,1,0,3.272,3.272l5.315-5.315a7.814,7.814,0,0,1,.916,3.679Zm-.825-10.315A12.509,12.509,0,1,0,49.8,32.448l6.607-6.607a21.776,21.776,0,1,1-3.273-3.273ZM64.14,64.141a34.862,34.862,0,1,1-49.3-49.3A34.878,34.878,0,0,1,56.715,9.175l-2.61,2.61a2.314,2.314,0,0,0-.677,1.577c0,.084,0,.169.007.254l.312,3.692a26.4,26.4,0,1,0,7.925,7.925l3.692.312c.065,0,.13.008.195.008l.033,0c.031,0,.061,0,.092,0,.05,0,.1-.006.15-.012l.092-.014c.049-.008.1-.017.145-.028l.091-.023c.047-.013.093-.027.14-.043l.089-.032c.045-.017.09-.037.134-.058.028-.013.057-.025.085-.04.045-.023.088-.048.131-.074l.077-.046c.046-.03.09-.063.134-.1.02-.016.042-.03.061-.046a2.293,2.293,0,0,0,.181-.162l2.61-2.61A34.878,34.878,0,0,1,64.14,64.141Zm0,0" transform="translate(1222.709 1577.707)"/></g></svg>