<svg xmlns="http://www.w3.org/2000/svg" width="145.447" height="73.499" viewBox="0 0 145.447 73.499"><defs><style>.a{fill:#fff;}</style></defs><path class="a" d="M.1,0,45.319,14.653c0,.25-.158.309-.275.4a10.141,10.141,0,0,0-1.76,1.826,3.8,3.8,0,0,0-.409,4.17,10.158,10.158,0,0,0,1.459,2.227,1.543,1.543,0,0,1,.384.509.758.758,0,0,1-.559-.05l-9.132-2.11c-5.479-1.259-10.967-2.5-16.455-3.778a15.662,15.662,0,0,1-3.186-.926,11.217,11.217,0,0,1-3.77-2.744C7.856,10.008,4.228,5.763.834,1.293.542.909.275.509,0,.117Z"/><path class="a" d="M165.366,0c-.3.442-.525.776-.759,1.1-1.259,1.726-2.61,3.386-3.97,5-2.2,2.66-4.428,5.3-6.747,7.848a11.909,11.909,0,0,1-6.914,3.82c-2.335.434-4.637,1.042-6.964,1.576l-18.873,4.337a.959.959,0,0,1-.534.067c0-.217.167-.309.275-.434a10.091,10.091,0,0,0,1.585-2.419,3.736,3.736,0,0,0-.384-3.953,10.208,10.208,0,0,0-1.668-1.81c-.15-.125-.35-.208-.434-.409C120.364,14.486,163.589.417,165.366,0Z" transform="translate(-19.918)"/><path class="a" d="M97.614,41.577a2.248,2.248,0,0,1-.651-.058.584.584,0,0,1-.55-.55.625.625,0,0,1,.367-.7,1.785,1.785,0,0,1,.45-.15,7.231,7.231,0,0,1,2.644.158,1.51,1.51,0,0,1,.934.625.6.6,0,0,1-.409,1,2.5,2.5,0,0,1-1.143,0c-.359-.092-.517,0-.634.359s-.359.892-.55,1.343-.2.442-.667.284c-2.035-.717-4.078-1.426-6.113-2.152-1.443-.509-2.911-.967-4.328-1.551a.6.6,0,0,0-.7.175l-2.986,2.5-.509.425c-.5.4-.392.425-.9,0l-3.152-2.552a5.454,5.454,0,0,1-.425-.342.542.542,0,0,0-.609-.092L67.674,43.846c-.734.259-.609.2-.834-.375-.183-.409-.359-.834-.509-1.234s-.267-.417-.592-.334a2.786,2.786,0,0,1-1.017.067.637.637,0,0,1-.676-.425.751.751,0,0,1,.242-.767,1.735,1.735,0,0,1,.834-.467,7.506,7.506,0,0,1,2.585-.158,1.268,1.268,0,0,1,.567.208.634.634,0,0,1,.275.684.584.584,0,0,1-.517.517c-.217,0-.434.042-.642.058-.058.175.058.284.092.417.083.275.242.325.509.208.659-.292,1.334-.567,2-.834l5.838-2.5c.183-.075.359-.167.567-.259-.1-.259-.334-.309-.517-.4q-5.7-2.952-11.409-5.888a1.535,1.535,0,0,1-.834-.959c-.5-1.493-1.051-2.969-1.551-4.462a.592.592,0,0,0-.642-.484,4.278,4.278,0,0,1-1.484-.225,2.844,2.844,0,0,1-.609-.259.834.834,0,0,1,0-1.568,3.336,3.336,0,0,1,1.284-.442,16.113,16.113,0,0,1,5.062.108,2.986,2.986,0,0,1,1.084.367.567.567,0,0,1,.075,1,1.668,1.668,0,0,1-.642.325,6.464,6.464,0,0,1-1.368.25c-.275,0-.409.133-.35.425a20.418,20.418,0,0,0,.784,2.61c.1.267.35.317.567.409l7.3,2.994L76.172,33.7c.651.267.651.267,1.017-.3a7.9,7.9,0,0,1,1.6-1.81,5.621,5.621,0,0,1,7.431,0,8.165,8.165,0,0,1,1.668,1.968c.234.384.25.384.651.217l10.633-4.387a.784.784,0,0,0,.517-.467,23.459,23.459,0,0,0,.717-2.369c.1-.467.067-.509-.417-.584-.259-.042-.517-.067-.776-.117a2.8,2.8,0,0,1-.834-.275c-.284-.142-.534-.334-.534-.676s.3-.5.584-.625a4.545,4.545,0,0,1,1.284-.325,16.8,16.8,0,0,1,4.529-.042,3.92,3.92,0,0,1,1.218.35,1.009,1.009,0,0,1,.667.834.976.976,0,0,1-.692.9,4.954,4.954,0,0,1-1.826.392c-.542,0-.525-.067-.751.567-.517,1.493-1.051,2.969-1.56,4.462a1.326,1.326,0,0,1-.717.834q-5.755,2.977-11.442,5.938a1.759,1.759,0,0,0-.567.334c0,.175.133.192.234.234l8.09,3.411C97.33,42.361,97.33,42.353,97.614,41.577ZM85.1,33.5c-1.568-1.193-4.245-.667-5.4.3a5.245,5.245,0,0,1,.542.384.584.584,0,0,0,.834.05,5.521,5.521,0,0,1,3.995-.734Z" transform="translate(-9.762 -3.948)"/><path class="a" d="M147.52,24.92c0,.234-.192.334-.3.467-2.127,2.352-4.27,4.687-6.372,7.064a5.671,5.671,0,0,1-3.336,1.851,45.035,45.035,0,0,1-5.788.567c-6.555.284-13.11.542-19.665.834l-3.244.125c-.133,0-.275.067-.4-.042s.167-.208.267-.284a5.237,5.237,0,0,0,2.5-3.995c0-.417.284-.434.567-.484l5.129-.834,13.486-2.327,15.846-2.719a6.672,6.672,0,0,1,1.309-.225Z" transform="translate(-17.993 -4.137)"/><path class="a" d="M58.194,35.765a1.026,1.026,0,0,1-.584,0c-5.7-.225-11.417-.442-17.13-.684-3.044-.133-6.088-.217-9.124-.517a19.556,19.556,0,0,1-2.911-.409,4.762,4.762,0,0,1-2.5-1.418q-3.428-3.8-6.872-7.589c0-.05-.058-.108-.092-.167.108-.167.259-.067.375-.042l8.732,1.484L40.6,28.576,54.775,31c.534.092.525.092.6.625a5.371,5.371,0,0,0,2.343,3.736C57.81,35.481,58.011,35.539,58.194,35.765Z" transform="translate(-3.151 -4.132)"/><path class="a" d="M87.984,84.8a1.126,1.126,0,0,1-.067-.592v-15.8a.317.317,0,0,1,.325-.317H102.3a1.009,1.009,0,0,1,.942.475q1.3,1.826,2.652,3.611a.509.509,0,0,1,0,.734c-.651.834-1.268,1.668-1.885,2.5-.359.484-.4.384,0,.834.592.6,1.193,1.2,1.8,1.793a.834.834,0,0,1,.3.625v3.394c0,.309-.1.434-.417.425h-3.511c-.334,0-.409-.15-.409-.442v-2.6a1.218,1.218,0,0,0-.359-.834,2.5,2.5,0,0,0-2.252-.942c-2.035.083-4.078,0-6.113,0h-.425c-.309,0-.45.083-.434.4s0,.767,0,1.151V82a.584.584,0,0,1-.292.609c-1.268.709-2.5,1.434-3.786,2.152a.991.991,0,0,1-.125.042Zm8.423-10.4h2.669a3.131,3.131,0,0,0,1.426-.067c.409-.217.651-.834.976-1.218l.067-.1a.309.309,0,0,0,0-.434c-.284-.367-.567-.734-.834-1.109a.525.525,0,0,0-.475-.208H92.671c-.309,0-.425.108-.425.425v2.235c0,.467,0,.475.475.484Z" transform="translate(-14.593 -11.303)"/><path class="a" d="M38.82,82.375c.484-.484.917-.926,1.359-1.359s.926-.9,1.359-1.384a1.117,1.117,0,0,1,.9-.367H52.13A1.293,1.293,0,0,0,53.3,78.7c.609-.834.609-.517,0-1.376a1.293,1.293,0,0,0-1.218-.575H42.448a.976.976,0,0,1-.9-.392c-.834-1.159-1.668-2.31-2.56-3.453a.484.484,0,0,1-.017-.717q1.384-1.835,2.727-3.711a.834.834,0,0,1,.751-.375H58.01a.6.6,0,0,1,.434.075c0,.158-.167.25-.275.359-.784.784-1.585,1.551-2.352,2.352a1.218,1.218,0,0,1-.951.4H45.175a1.093,1.093,0,0,0-1.068.5c-.175.267-.55.459-.55.767s.367.5.534.776a1.076,1.076,0,0,0,1.1.534h9.691a.992.992,0,0,1,.909.442c.834,1.168,1.668,2.31,2.577,3.444a.467.467,0,0,1,0,.676c-.934,1.243-1.86,2.5-2.76,3.761a.834.834,0,0,1-.776.334H39.579A1.518,1.518,0,0,1,38.82,82.375Z" transform="translate(-6.444 -11.303)"/><path class="a" d="M121.967,68.079h5.446a1.117,1.117,0,0,1,.909.359c.834.892,1.726,1.76,2.6,2.619a.909.909,0,0,1,.3.742v6.964a.917.917,0,0,1-.267.7c-.909.884-1.81,1.793-2.694,2.7a.967.967,0,0,1-.742.317H116.437a.942.942,0,0,1-.742-.325q-1.309-1.334-2.644-2.66a.834.834,0,0,1-.292-.692V71.724a.834.834,0,0,1,.3-.684q1.334-1.326,2.644-2.66a.951.951,0,0,1,.751-.3C118.289,68.088,120.124,68.079,121.967,68.079Zm0,11.192h4.42c.45,0,.467,0,.467-.425V71.707c0-.425,0-.442-.45-.442h-8.882c-.425,0-.434,0-.442.459V78.8c0,.45,0,.467.484.467Z" transform="translate(-18.719 -11.302)"/><path class="a" d="M81.793,79.272a.434.434,0,0,1-.192.367l-2.5,2.5a.984.984,0,0,1-.751.317H69.024a.884.884,0,0,1-.717-.267c-.884-.884-1.785-1.76-2.685-2.627a.834.834,0,0,1-.292-.684V71.791a.976.976,0,0,1,.325-.742c.884-.834,1.768-1.768,2.644-2.66a.884.884,0,0,1,.684-.309h13.3c.067.192-.1.259-.183.35-.834.834-1.668,1.618-2.435,2.452a1.118,1.118,0,0,1-.9.359h-8.34c-.834,0-.742-.067-.742.751v6.964a.287.287,0,0,0,.3.292H81.809Z" transform="translate(-10.845 -11.302)"/><path class="a" d="M137,38.69a4.537,4.537,0,0,1-.726,1.251,10.008,10.008,0,0,1-2.56,2.2,27.088,27.088,0,0,1-6.939,2.936,6.981,6.981,0,0,1-2.877.217c-2.8-.342-5.6-.767-8.34-1.334a4.228,4.228,0,0,1-.467-.108c-.442-.108-.45-.117-.4-.55a2.794,2.794,0,0,0-.234-1.476,6.838,6.838,0,0,0-1.017-1.668,1.059,1.059,0,0,1-.309-.525Z" transform="translate(-18.781 -6.423)"/><path class="a" d="M56.48,39.786a8.482,8.482,0,0,0-.934,1.259,3.261,3.261,0,0,0-.609,2.4c.058.259-.092.325-.284.375-.392.092-.784.183-1.176.259-2.7.517-5.413.942-8.14,1.243a5.171,5.171,0,0,1-1.86-.083,26.829,26.829,0,0,1-7.6-3.094,9.4,9.4,0,0,1-2.71-2.36,2.5,2.5,0,0,1-.55-1.076l23.794.967Z" transform="translate(-5.415 -6.426)"/><path class="a" d="M67.438,25.623l.676-.467A3.169,3.169,0,0,0,69,24.322a1.384,1.384,0,0,0-.15-1.868A3.928,3.928,0,0,0,67.6,21.62a14.1,14.1,0,0,0-9.4-.834,5.379,5.379,0,0,0-3.036,1.876c-.634.834-.751.934,0,1.952a5.388,5.388,0,0,0,1.118,1.034c.142.108.334.158.392.359-.142.125-.267,0-.384,0a7.823,7.823,0,0,1-2.243-1.184,5.713,5.713,0,0,1-.667-.6,1.893,1.893,0,0,1-.183-2.727,6.021,6.021,0,0,1,1.543-1.434,12.026,12.026,0,0,1,4.879-1.876,13.978,13.978,0,0,1,7.664.742,9.332,9.332,0,0,1,2.777,1.668,4.67,4.67,0,0,1,.759.834,2.018,2.018,0,0,1-.208,2.7,4.845,4.845,0,0,1-2.11,1.243,2.143,2.143,0,0,1-1.068.25Z" transform="translate(-8.75 -2.98)"/><path class="a" d="M103.164,25.6a1.351,1.351,0,0,1-.834-.108,5.388,5.388,0,0,1-2.118-1.134,2.077,2.077,0,0,1-.259-3.027,7.564,7.564,0,0,1,3.336-2.377,14.244,14.244,0,0,1,11.459.417,7.181,7.181,0,0,1,2.343,1.668c1.151,1.251,1.109,2.3-.15,3.436a7.181,7.181,0,0,1-2.986,1.568c0-.208.183-.25.292-.334a5.838,5.838,0,0,0,1.5-1.493,1.017,1.017,0,0,0,0-1.218,5.588,5.588,0,0,0-2.894-2.085,9.758,9.758,0,0,0-2.844-.542,15.512,15.512,0,0,0-5.955.834,7.106,7.106,0,0,0-1.977,1.034,1.51,1.51,0,0,0-.1,2.5,12.65,12.65,0,0,0,1.184.859Z" transform="translate(-16.504 -2.979)"/><path class="a" d="M61.56,60.01a43.082,43.082,0,0,0,4.445-.15,20.683,20.683,0,0,0,3.645-.55,5.129,5.129,0,0,0,1.626-.776,16.68,16.68,0,0,0,5-5.921c1.009-1.91,1.96-3.845,2.877-5.838a1.327,1.327,0,0,1,.133-.267c.1-.142.067-.45.384-.342s.484.317.342.676c-.642,1.668-1.293,3.269-1.935,4.9-1.034,2.61-2.052,5.221-3.086,7.823a3.378,3.378,0,0,1-2.961,2.085,9.257,9.257,0,0,1-2.836-.15c-2.36-.409-4.72-.834-7.081-1.3A1.176,1.176,0,0,1,61.56,60.01Z" transform="translate(-10.22 -7.66)"/><path class="a" d="M108.686,60.059a5.655,5.655,0,0,1-1.56.4c-2.2.409-4.4.834-6.605,1.184a6.6,6.6,0,0,1-2.827-.075,3.4,3.4,0,0,1-2.444-2.185c-1.284-3.336-2.627-6.672-3.945-10.008-.317-.784-.625-1.576-.934-2.36-.175-.442-.117-.575.284-.751a.221.221,0,0,1,.3.092l.2.434c1.093,2.277,2.16,4.562,3.419,6.747a16.971,16.971,0,0,0,3.745,4.487,7.2,7.2,0,0,0,3.828,1.668,53.251,53.251,0,0,0,6.538.367Z" transform="translate(-14.987 -7.676)"/><path class="a" d="M48.85,48.52c1.068-.259,2.052-.484,3.019-.726,1.943-.492,3.861-1.009,5.771-1.6.467-.142.467-.142.776.259a3.278,3.278,0,0,0,1.309.942c.342.158.7.284,1.042.425,0,.183-.092.217-.183.275a26.979,26.979,0,0,1-4.1,2.143,4.053,4.053,0,0,1-2.193.234,20.925,20.925,0,0,1-5.271-1.743,2.67,2.67,0,0,1-.167-.208Z" transform="translate(-8.11 -7.654)"/><path class="a" d="M111.14,47.895c.117-.208.35-.175.525-.25a3.761,3.761,0,0,0,1.993-1.393c.133-.217.3-.133.475-.083l2.377.692c2.035.575,4.087,1.093,6.155,1.568a.6.6,0,0,1,.317.108c0,.125,0,.158-.108.192a21.375,21.375,0,0,1-5.087,1.668,4.253,4.253,0,0,1-2.427-.208,28.665,28.665,0,0,1-4.011-2.1.409.409,0,0,1-.208-.192Z" transform="translate(-18.451 -7.655)"/><path class="a" d="M63.558,44.861a2.143,2.143,0,0,1-2.327-.834,2.1,2.1,0,0,1,.2-2.435,3.628,3.628,0,0,1,1.076-.834,8.69,8.69,0,0,1,7.506-.659,3.594,3.594,0,0,1,1.2.684,1.434,1.434,0,0,1,.158,2.052,2.819,2.819,0,0,1-1.493.909c0-.259.192-.342.292-.475a1.076,1.076,0,0,0-.45-1.743,3.645,3.645,0,0,0-1.293-.292,12.743,12.743,0,0,0-3.136.1,5.713,5.713,0,0,0-2.427,1.026c-.976.751-.967,1.326,0,2.052Z" transform="translate(-10.116 -6.564)"/><path class="a" d="M108.555,44.936c.309-.217.559-.384.784-.559.834-.667.876-1.2,0-1.9A5.137,5.137,0,0,0,107,41.408a11.009,11.009,0,0,0-3.911-.05,2.5,2.5,0,0,0-.834.25,1.059,1.059,0,0,0-.375,1.668c.1.142.225.275.35.425a2.1,2.1,0,0,1-1.793-1.268,1.443,1.443,0,0,1,.617-1.743,2.785,2.785,0,0,1,.734-.417,8.29,8.29,0,0,1,5-.509,9.249,9.249,0,0,1,2.9,1,3.987,3.987,0,0,1,.984.834,2.06,2.06,0,0,1,.384,2.2,1.851,1.851,0,0,1-1.668,1.151A1.768,1.768,0,0,1,108.555,44.936Z" transform="translate(-16.658 -6.572)"/><path class="a" d="M61,51.534a1.026,1.026,0,0,1,.55-.317c1.042-.392,2.085-.759,3.119-1.168a11.025,11.025,0,0,1,3.136-.834,5.271,5.271,0,0,0,2.052-.676.1.1,0,0,1,0,.158,26.638,26.638,0,0,1-2.394,2.644,5.746,5.746,0,0,1-1.326.951,3.653,3.653,0,0,1-2.41.359A8.206,8.206,0,0,1,61,51.534Z" transform="translate(-10.127 -8.058)"/><path class="a" d="M102.66,48.6a9.024,9.024,0,0,0,3.169.776,1.96,1.96,0,0,1,.534.108l5,1.868a.575.575,0,0,1,.142.083c0,.117,0,.167-.092.208a7.906,7.906,0,0,1-2.569,1.026,3.67,3.67,0,0,1-2.5-.384,8.341,8.341,0,0,1-.834-.525A18.615,18.615,0,0,1,102.66,48.6Z" transform="translate(-17.043 -8.068)"/><path class="a" d="M70.13,52.615a.926.926,0,0,1,.208-.567c.634-1.151,1.3-2.277,1.893-3.444a2.5,2.5,0,0,1,1.393-1.343c.183-.067.334-.234.559-.192a.609.609,0,0,1,0,.467c-.225,1.351-.442,2.71-.567,4.078a1.184,1.184,0,0,1-1.3,1.143,9.4,9.4,0,0,1-1.451-.075Z" transform="translate(-11.643 -7.813)"/><path class="a" d="M99.317,47a3.228,3.228,0,0,1,1.91,1.493c.584,1.218,1.293,2.377,1.943,3.561a.876.876,0,0,1,.2.525,14.436,14.436,0,0,1-2.5.15,1.1,1.1,0,0,1-.992-.976c-.15-1.526-.417-3.036-.625-4.554C99.258,47.167,99.283,47.125,99.317,47Z" transform="translate(-16.477 -7.803)"/></svg>