<svg xmlns="http://www.w3.org/2000/svg" viewBox="0 0 174.4 88.13"><defs><style>.cls-1{fill:#fff;}</style></defs><title>logoAsset 1</title><g id="Layer_2" data-name="Layer 2"><g id="Layer_1-2" data-name="Layer 1"><path class="cls-1" d="M.12,0,54.34,17.57c0,.3-.19.37-.33.48a12.16,12.16,0,0,0-2.11,2.19,4.55,4.55,0,0,0-.49,5,12.18,12.18,0,0,0,1.75,2.67,1.85,1.85,0,0,1,.46.61c-.24.11-.46,0-.67-.06L42,25.93c-6.57-1.51-13.15-3-19.73-4.53a18.78,18.78,0,0,1-3.82-1.11A13.45,13.45,0,0,1,13.93,17C9.42,12,5.07,6.91,1,1.55.65,1.09.33.61,0,.14Z"/><path class="cls-1" d="M174.4,0c-.36.53-.63.93-.91,1.32-1.51,2.07-3.13,4.06-4.76,6-2.64,3.19-5.31,6.35-8.09,9.41a14.28,14.28,0,0,1-8.29,4.58c-2.8.52-5.56,1.25-8.35,1.89l-22.63,5.2a1.15,1.15,0,0,1-.64.08c0-.26.2-.37.33-.52a12.1,12.1,0,0,0,1.9-2.9,4.48,4.48,0,0,0-.46-4.74,12.24,12.24,0,0,0-2-2.17c-.18-.15-.42-.25-.52-.49C120.44,17.37,172.27.5,174.4,0Z"/><path class="cls-1" d="M105.34,45.12c-.3,0-.55,0-.78-.07a.7.7,0,0,1-.66-.66.75.75,0,0,1,.44-.84,2.14,2.14,0,0,1,.54-.18,8.67,8.67,0,0,1,3.17.19,1.81,1.81,0,0,1,1.12.75.72.72,0,0,1-.49,1.2,3,3,0,0,1-1.37,0c-.43-.11-.62,0-.76.43s-.43,1.07-.66,1.61-.24.53-.8.34c-2.44-.86-4.89-1.71-7.33-2.58-1.73-.61-3.49-1.16-5.19-1.86a.72.72,0,0,0-.84.21l-3.58,3-.61.51c-.6.48-.47.51-1.08,0l-3.78-3.06a6.54,6.54,0,0,1-.51-.41.65.65,0,0,0-.73-.11l-12,4.25c-.88.31-.73.24-1-.45-.22-.49-.43-1-.61-1.48s-.32-.5-.71-.4a3.34,3.34,0,0,1-1.22.08c-.35,0-.7-.13-.81-.51a.9.9,0,0,1,.29-.92,2.08,2.08,0,0,1,1-.56,9,9,0,0,1,3.1-.19,1.52,1.52,0,0,1,.68.25.76.76,0,0,1,.33.82.7.7,0,0,1-.62.62c-.26,0-.52.05-.77.07-.07.21.07.34.11.5.1.33.29.39.61.25.79-.35,1.6-.68,2.4-1l7-3c.22-.09.43-.2.68-.31-.12-.31-.4-.37-.62-.48q-6.83-3.54-13.68-7.06a1.84,1.84,0,0,1-1-1.15c-.6-1.79-1.26-3.56-1.86-5.35a.71.71,0,0,0-.77-.58,5.13,5.13,0,0,1-1.78-.27,3.41,3.41,0,0,1-.73-.31,1,1,0,0,1,0-1.88A4,4,0,0,1,61,24a19.32,19.32,0,0,1,6.07.13,3.58,3.58,0,0,1,1.3.44.68.68,0,0,1,.09,1.2,2,2,0,0,1-.77.39,7.75,7.75,0,0,1-1.64.3c-.33,0-.49.16-.42.51a24.48,24.48,0,0,0,.94,3.13c.12.32.42.38.68.49L76,34.18l3.63,1.5c.78.32.78.32,1.22-.36a9.47,9.47,0,0,1,1.92-2.17,6.74,6.74,0,0,1,8.91,0,9.79,9.79,0,0,1,2,2.36c.28.46.3.46.78.26l12.75-5.26a.94.94,0,0,0,.62-.56,28.13,28.13,0,0,0,.86-2.84c.12-.56.08-.61-.5-.7-.31-.05-.62-.08-.93-.14a3.36,3.36,0,0,1-1-.33c-.34-.17-.64-.4-.64-.81s.36-.6.7-.75a5.45,5.45,0,0,1,1.54-.39,20.15,20.15,0,0,1,5.43-.05,4.7,4.7,0,0,1,1.46.42,1.21,1.21,0,0,1,.8,1,1.17,1.17,0,0,1-.83,1.08,5.94,5.94,0,0,1-2.19.47c-.65,0-.63-.08-.9.68-.62,1.79-1.26,3.56-1.87,5.35a1.59,1.59,0,0,1-.86,1Q102,37.51,95.18,41.06a2.11,2.11,0,0,0-.68.4c0,.21.16.23.28.28l9.7,4.09C105,46.06,105,46.05,105.34,45.12Zm-15-9.68c-1.88-1.43-5.09-.8-6.48.36a6.29,6.29,0,0,1,.65.46.7.7,0,0,0,1,.06A6.62,6.62,0,0,1,90.3,35.44Z"/><path class="cls-1" d="M155.31,24.92c0,.28-.23.4-.36.56-2.55,2.82-5.12,5.62-7.64,8.47a6.8,6.8,0,0,1-4,2.22,54,54,0,0,1-6.94.68c-7.86.34-15.72.65-23.58,1L108.9,38c-.16,0-.33.08-.48-.05s.2-.25.32-.34a6.28,6.28,0,0,0,3-4.79c0-.5.34-.52.68-.58l6.15-1,16.17-2.79,19-3.26A8,8,0,0,1,155.31,24.92Z"/><path class="cls-1" d="M66,37.93a1.23,1.23,0,0,1-.7,0c-6.84-.27-13.69-.53-20.54-.82-3.65-.16-7.3-.26-10.94-.62A23.45,23.45,0,0,1,30.33,36a5.71,5.71,0,0,1-3-1.7q-4.11-4.56-8.24-9.1c0-.06-.07-.13-.11-.2.13-.2.31-.08.45-.05L29.9,26.73l15,2.58,17,2.91c.64.11.63.11.72.75a6.44,6.44,0,0,0,2.81,4.48C65.54,37.59,65.78,37.66,66,37.93Z"/><path class="cls-1" d="M88,88.13a1.35,1.35,0,0,1-.08-.71V68.9c0-.14,0-.29,0-.43s.12-.4.39-.38h.44c5.47,0,10.94,0,16.41,0a1.21,1.21,0,0,1,1.13.57q1.56,2.19,3.18,4.33a.61.61,0,0,1,0,.88c-.78,1-1.52,2-2.26,3-.43.58-.48.46,0,1,.71.72,1.43,1.44,2.16,2.15a1,1,0,0,1,.36.75c0,1.36,0,2.71,0,4.07,0,.37-.12.52-.5.51-1.41,0-2.81,0-4.21,0-.4,0-.49-.18-.49-.53,0-1,0-2.08,0-3.12a1.46,1.46,0,0,0-.43-1,3,3,0,0,0-2.7-1.13c-2.44.1-4.89,0-7.33,0-.17,0-.34,0-.51,0-.37,0-.54.1-.52.48s0,.92,0,1.38c0,1.12,0,2.23,0,3.34a.7.7,0,0,1-.35.73c-1.52.85-3,1.72-4.54,2.58A1.19,1.19,0,0,1,88,88.13Zm10.1-12.47c1.07,0,2.13,0,3.2,0,.57,0,1.22.18,1.71-.08s.78-1,1.17-1.46l.08-.12a.37.37,0,0,0,0-.52c-.34-.44-.68-.88-1-1.33a.63.63,0,0,0-.57-.25c-3,0-6,0-9.07,0-.37,0-.51.13-.51.51,0,.89,0,1.79,0,2.68,0,.56,0,.57.57.58Z"/><path class="cls-1" d="M38.82,85.22c.58-.58,1.1-1.11,1.63-1.63s1.11-1.08,1.63-1.66a1.34,1.34,0,0,1,1.08-.44c3.88,0,7.75,0,11.62,0a1.55,1.55,0,0,0,1.4-.68c.73-1,.73-.62,0-1.65a1.55,1.55,0,0,0-1.46-.69c-3.85,0-7.7,0-11.55,0A1.17,1.17,0,0,1,42.09,78c-1-1.39-2-2.77-3.07-4.14A.58.58,0,0,1,39,73q1.66-2.2,3.27-4.45a1,1,0,0,1,.9-.45H61.83a.72.72,0,0,1,.52.09c0,.19-.2.3-.33.43-.94.94-1.9,1.86-2.82,2.82a1.46,1.46,0,0,1-1.14.48c-3.87,0-7.75,0-11.62,0a1.31,1.31,0,0,0-1.28.6c-.21.32-.66.55-.66.92s.44.6.64.93a1.29,1.29,0,0,0,1.32.64c3.88,0,7.75,0,11.62,0a1.19,1.19,0,0,1,1.09.53c1,1.4,2,2.77,3.09,4.13a.56.56,0,0,1,0,.81c-1.12,1.49-2.23,3-3.31,4.51a1,1,0,0,1-.93.4H48.81c-3,0-6.05,0-9.08,0A1.82,1.82,0,0,1,38.82,85.22Z"/><path class="cls-1" d="M123.8,68.08c2.18,0,4.35,0,6.53,0a1.34,1.34,0,0,1,1.09.43c1,1.07,2.07,2.11,3.12,3.14a1.09,1.09,0,0,1,.36.89q0,4.18,0,8.35a1.1,1.1,0,0,1-.32.84c-1.09,1.06-2.17,2.15-3.23,3.24a1.16,1.16,0,0,1-.89.38H117.17a1.13,1.13,0,0,1-.89-.39q-1.57-1.6-3.17-3.19a1,1,0,0,1-.35-.83q0-4.25,0-8.49a1,1,0,0,1,.36-.82q1.6-1.59,3.17-3.19a1.14,1.14,0,0,1,.9-.36C119.39,68.09,121.59,68.08,123.8,68.08Zm0,13.42h5.3c.54,0,.56,0,.56-.51,0-2.85,0-5.71,0-8.56,0-.51,0-.53-.54-.53H118.47c-.51,0-.52,0-.53.55v8.49c0,.54,0,.56.58.56Z"/><path class="cls-1" d="M85.07,81.5a.52.52,0,0,1-.23.44c-1,1-2,2-3,3a1.18,1.18,0,0,1-.9.38q-5.58,0-11.18,0A1.06,1.06,0,0,1,68.9,85c-1.06-1.06-2.14-2.11-3.22-3.15a1,1,0,0,1-.35-.82c0-2.83,0-5.67,0-8.5a1.17,1.17,0,0,1,.39-.89c1.06-1,2.12-2.12,3.17-3.19a1.06,1.06,0,0,1,.82-.37H85.38l.28,0c.08.23-.12.31-.22.42-1,1-2,1.94-2.92,2.94a1.34,1.34,0,0,1-1.08.43c-3.34,0-6.68,0-10,0-1,0-.89-.08-.89.9v7.85c0,.17,0,.33,0,.5s.12.35.36.35.38,0,.58,0h13.6Z"/><path class="cls-1" d="M141.75,38.69a5.44,5.44,0,0,1-.87,1.5,12,12,0,0,1-3.07,2.64,32.48,32.48,0,0,1-8.32,3.52,8.37,8.37,0,0,1-3.45.26c-3.36-.41-6.71-.92-10-1.6a5.07,5.07,0,0,1-.56-.13c-.53-.13-.54-.14-.48-.66a3.35,3.35,0,0,0-.28-1.77,8.2,8.2,0,0,0-1.22-2,1.27,1.27,0,0,1-.37-.63Z"/><path class="cls-1" d="M61.23,40a10.17,10.17,0,0,0-1.12,1.51,3.91,3.91,0,0,0-.73,2.88c.07.31-.11.39-.34.45-.47.11-.94.22-1.41.31-3.24.62-6.49,1.13-9.76,1.49a6.2,6.2,0,0,1-2.23-.1,32.17,32.17,0,0,1-9.11-3.71A11.27,11.27,0,0,1,33.28,40a3,3,0,0,1-.66-1.29l28.53,1.16Z"/><path class="cls-1" d="M70.37,27.15l.81-.56a3.8,3.8,0,0,0,1.06-1,1.66,1.66,0,0,0-.18-2.24,4.71,4.71,0,0,0-1.49-1,16.91,16.91,0,0,0-11.27-1,6.45,6.45,0,0,0-3.64,2.25c-.76,1-.9,1.12,0,2.34A6.46,6.46,0,0,0,57,27.18c.17.13.4.19.47.43-.17.15-.32,0-.46,0a9.38,9.38,0,0,1-2.69-1.42,6.85,6.85,0,0,1-.8-.72,2.27,2.27,0,0,1-.22-3.27,7.22,7.22,0,0,1,1.85-1.72A14.42,14.42,0,0,1,61,18.23a16.76,16.76,0,0,1,9.19.89,11.19,11.19,0,0,1,3.33,2,5.6,5.6,0,0,1,.91,1,2.42,2.42,0,0,1-.25,3.24,5.81,5.81,0,0,1-2.53,1.49A2.57,2.57,0,0,1,70.37,27.15Z"/><path class="cls-1" d="M103.91,27.12a1.62,1.62,0,0,1-1-.13,6.46,6.46,0,0,1-2.54-1.36,2.49,2.49,0,0,1-.31-3.63,9.07,9.07,0,0,1,4-2.85,17.08,17.08,0,0,1,13.74.5,8.61,8.61,0,0,1,2.81,2c1.38,1.5,1.33,2.76-.18,4.12a8.61,8.61,0,0,1-3.58,1.88c0-.25.22-.3.35-.4A7,7,0,0,0,119,25.46,1.22,1.22,0,0,0,119,24a6.7,6.7,0,0,0-3.47-2.5,11.7,11.7,0,0,0-3.41-.65,18.6,18.6,0,0,0-7.14,1,8.52,8.52,0,0,0-2.37,1.24,1.81,1.81,0,0,0-.12,3A15.17,15.17,0,0,0,103.91,27.12Z"/><path class="cls-1" d="M61.56,62.77c1.85,0,3.59,0,5.33-.18a24.8,24.8,0,0,0,4.37-.66A6.15,6.15,0,0,0,73.21,61a20,20,0,0,0,6-7.1c1.21-2.29,2.35-4.61,3.45-7a1.59,1.59,0,0,1,.16-.32c.12-.17.08-.54.46-.41s.58.38.41.81c-.77,2-1.55,3.92-2.32,5.87-1.24,3.13-2.46,6.26-3.7,9.38a4.05,4.05,0,0,1-3.55,2.5,11.1,11.1,0,0,1-3.4-.18c-2.83-.49-5.66-1-8.49-1.56A1.41,1.41,0,0,1,61.56,62.77Z"/><path class="cls-1" d="M112.35,62.81a6.78,6.78,0,0,1-1.87.48c-2.64.49-5.28,1-7.92,1.42a7.91,7.91,0,0,1-3.39-.09A4.08,4.08,0,0,1,96.24,62c-1.54-4-3.15-8-4.73-12-.38-.94-.75-1.89-1.12-2.83-.21-.53-.14-.69.34-.9.17-.08.28,0,.36.11l.24.52c1.31,2.73,2.59,5.47,4.1,8.09a20.35,20.35,0,0,0,4.49,5.38,8.63,8.63,0,0,0,4.59,2A63.85,63.85,0,0,0,112.35,62.81Z"/><path class="cls-1" d="M48.85,49c1.28-.31,2.46-.58,3.62-.87,2.33-.59,4.63-1.21,6.92-1.92.56-.17.56-.17.93.31a3.93,3.93,0,0,0,1.57,1.13c.41.19.84.34,1.25.51,0,.22-.11.26-.22.33A32.35,32.35,0,0,1,58,51.06a4.86,4.86,0,0,1-2.63.28,25.09,25.09,0,0,1-6.32-2.09A3.2,3.2,0,0,1,48.85,49Z"/><path class="cls-1" d="M111.14,48.25c.14-.25.42-.21.63-.3a4.51,4.51,0,0,0,2.39-1.67c.16-.26.36-.16.57-.1l2.85.83c2.44.69,4.9,1.31,7.38,1.88a.72.72,0,0,1,.38.13c0,.15,0,.19-.13.23a25.63,25.63,0,0,1-6.1,2A5.1,5.1,0,0,1,116.2,51a34.37,34.37,0,0,1-4.81-2.52A.49.49,0,0,1,111.14,48.25Z"/><path class="cls-1" d="M64.08,45.92a2.57,2.57,0,0,1-2.79-1A2.52,2.52,0,0,1,61.53,42a4.35,4.35,0,0,1,1.29-1,10.42,10.42,0,0,1,9-.79,4.31,4.31,0,0,1,1.44.82,1.72,1.72,0,0,1,.19,2.46,3.38,3.38,0,0,1-1.79,1.09c0-.31.23-.41.35-.57a1.29,1.29,0,0,0-.54-2.09,4.37,4.37,0,0,0-1.55-.35,15.28,15.28,0,0,0-3.76.12,6.85,6.85,0,0,0-2.91,1.23c-1.17.9-1.16,1.59,0,2.46Z"/><path class="cls-1" d="M110.19,46c.37-.26.67-.46.94-.67,1-.8,1.05-1.44,0-2.28a6.16,6.16,0,0,0-2.81-1.28,13.2,13.2,0,0,0-4.69-.06,3,3,0,0,0-1,.3,1.27,1.27,0,0,0-.45,2c.12.17.27.33.42.51a2.52,2.52,0,0,1-2.15-1.52,1.73,1.73,0,0,1,.74-2.09,3.34,3.34,0,0,1,.88-.5,9.94,9.94,0,0,1,6-.61A11.09,11.09,0,0,1,111.55,41a4.78,4.78,0,0,1,1.18,1,2.47,2.47,0,0,1,.46,2.64,2.22,2.22,0,0,1-2,1.38A2.12,2.12,0,0,1,110.19,46Z"/><path class="cls-1" d="M61,52.13a1.23,1.23,0,0,1,.66-.38c1.25-.47,2.5-.91,3.74-1.4a13.22,13.22,0,0,1,3.76-1,6.32,6.32,0,0,0,2.46-.81.12.12,0,0,1,0,.19,31.94,31.94,0,0,1-2.87,3.17,6.89,6.89,0,0,1-1.59,1.14,4.38,4.38,0,0,1-2.89.43A9.84,9.84,0,0,1,61,52.13Z"/><path class="cls-1" d="M102.66,48.6a10.82,10.82,0,0,0,3.8.93,2.35,2.35,0,0,1,.64.13l6,2.24a.69.69,0,0,1,.17.1c0,.14,0,.2-.11.25a9.48,9.48,0,0,1-3.08,1.23,4.4,4.4,0,0,1-3-.46,10,10,0,0,1-1-.63A22.32,22.32,0,0,1,102.66,48.6Z"/><path class="cls-1" d="M70.13,53.72a1.11,1.11,0,0,1,.25-.68c.76-1.38,1.56-2.73,2.27-4.13a3,3,0,0,1,1.67-1.61c.22-.08.4-.28.67-.23a.73.73,0,0,1,0,.56c-.27,1.62-.53,3.25-.68,4.89a1.42,1.42,0,0,1-1.56,1.37c-.58,0-1.16,0-1.74-.09Z"/><path class="cls-1" d="M99.33,47a3.87,3.87,0,0,1,2.29,1.79c.7,1.46,1.55,2.85,2.33,4.27a1.05,1.05,0,0,1,.24.63,17.31,17.31,0,0,1-3,.18A1.32,1.32,0,0,1,100,52.7c-.18-1.83-.5-3.64-.75-5.46C99.26,47.2,99.29,47.15,99.33,47Z"/></g></g></svg>