<svg xmlns="http://www.w3.org/2000/svg" width="70.982" height="75.789" viewBox="0 0 70.982 75.789"><defs><style>.a{fill:#07f;}</style></defs><g transform="translate(-1625 -3762)"><g transform="translate(1625.025 3762.031)"><path class="a" d="M35.24,46.58v10.6c0,.21-.12.5.14.61s.36-.16.52-.28a13.43,13.43,0,0,0,2.87-3.19c.09-.13.16-.35.33-.33s.19.28.23.45c.6,2.79,1.19,5.58,1.81,8.36.14.61-.13.74-.62.86-10.6,2.55-20.22.5-28.69-6.37A30.92,30.92,0,0,1,.44,37.46,31.28,31.28,0,0,1,6.79,12.6,31.17,31.17,0,0,1,28.27.28,31.29,31.29,0,0,1,54.16,8.52,31.38,31.38,0,0,1,64.44,28.25a31.63,31.63,0,0,1-1.87,15.67c-.32.84-.32.84-1.17.51-1.31-.53-2.62-1.07-3.95-1.57-.47-.18-.57-.4-.38-.87a25.9,25.9,0,0,0,1.58-6c.08-.55,0-.74-.6-.74H50.66c-.51,0-.71.2-.73.67,0,1-.14,2.09-.24,3.13-.06.6-.29.59-.75.4-1.41-.57-2.82-1.14-4.24-1.68-.5-.19-.74-.47-.64-1a.48.48,0,0,0,0-.12c.06-1.38.06-1.38-1.31-1.38H35.97c-.56,0-.74.16-.74.74C35.26,39.52,35.24,43.05,35.24,46.58Zm0-28.49V28.75c0,.37,0,.69.52.69h7.89c.4,0,.54-.16.49-.57-.12-1.12-.2-2.24-.34-3.36A38,38,0,0,0,40,12.41a15.35,15.35,0,0,0-4-5.16c-.18-.15-.37-.44-.61-.31s-.1.45-.1.69q-.05,5.23-.05,10.46ZM29.42,46.57V36.17c0-.91,0-.91-.93-.91H22.08c-1.51,0-1.51,0-1.41,1.47a41.22,41.22,0,0,0,3.49,14.4,17,17,0,0,0,4.63,6.36c.15.11.3.36.52.24s.1-.37.11-.57Zm0-28.45V7.47c0-.17.07-.41-.11-.51s-.33.11-.46.22c-.33.27-.67.55-1,.85a19.75,19.75,0,0,0-4.22,6.66,45,45,0,0,0-3.08,14.06c0,.51.12.7.64.69h7.27c.93,0,.93,0,.93-.9ZM19.88,55.76a1,1,0,0,0-.23-.6A37.911,37.911,0,0,1,17.41,50a53.4,53.4,0,0,1-2.64-14c0-.57-.24-.72-.78-.72H7.52c-1.81,0-1.62-.19-1.3,1.6a26.23,26.23,0,0,0,9.68,16.3,22.72,22.72,0,0,0,3.98,2.58ZM44.94,9.11c-.08.23.09.39.18.56a40.7,40.7,0,0,1,3.7,10.6,52.561,52.561,0,0,1,1.09,8.1c.05,1.07.06,1.07,1.15,1.07h6.58c1.11,0,1.13,0,.94-1.11a26.38,26.38,0,0,0-13.13-19C45.3,9.19,45.15,9,44.94,9.11Zm-25,0a1.6,1.6,0,0,0-.3,0c-.18.09-.37.18-.54.28a26.72,26.72,0,0,0-13,19.36c-.06.46,0,.69.55.69h7.57c.39,0,.55-.15.57-.54.05-.84.14-1.68.22-2.51a49.94,49.94,0,0,1,2.5-11.89A38.52,38.52,0,0,1,19.9,9.07Z"/><path class="a" d="M39,39.42c0-.59.29-.78.88-.55,1.4.54,2.79,1.11,4.18,1.67l24.2,9.66.4.16a.63.63,0,0,1,.44.6c0,.29-.22.42-.46.52l-2.33,1q-3.63,1.5-7.28,3c-.43.17-.49.29-.17.66,4,4.67,7.88,9.36,11.83,14,.39.46.35.7-.1,1.08-1.61,1.34-3.18,2.72-4.76,4.1-.7.6-.68.6-1.28-.1L52.91,61.36c-.4-.47-.53-.36-.81.09q-2.61,4.24-5.26,8.47c-.19.29-.31.74-.79.65s-.47-.5-.55-.86L39.08,39.79A2.52,2.52,0,0,1,39,39.42Z"/></g></g></svg>