<svg xmlns="http://www.w3.org/2000/svg" width="76.106" height="76.33" viewBox="0 0 76.106 76.33"><defs><style>.a{fill:#07f;}</style></defs><g transform="translate(-840.958 -3750.823)"><g transform="translate(840.958 3750.823)"><g transform="translate(0)"><path class="a" d="M41.5,36.92v.244c-.173,1.469,0,2.459,1.736,3.142,2.4.974,3.527,3.142,3.5,5.813a18.554,18.554,0,0,1-.149,4.014,6.551,6.551,0,0,1-12.946-1.485,18.751,18.751,0,0,1,.118-3.928,6.347,6.347,0,0,1,4.517-4.972.786.786,0,0,0,.652-.9c-.047-1.343,0-2.687,0-4.022,0-.511-.157-.644-.652-.652-1.807,0-1.807-.055-2.137-1.87a2.718,2.718,0,0,0-2.412-2.278.825.825,0,0,0-.581.228c-.6.385-1.2.786-1.767,1.186-.432.322-.786.369-1.084-.1-.534-.786-1.17-.786-2.011-.424-3.221,1.351-6.465,2.632-9.709,3.928a.841.841,0,0,0-.66.943c.047,1.06,0,2.137,0,3.2a.621.621,0,0,0,.518.738,6.465,6.465,0,0,1,4.713,6.52A17.714,17.714,0,0,1,23.024,50a6.551,6.551,0,0,1-12.969-1.367,18.232,18.232,0,0,1,.118-3.928,6.284,6.284,0,0,1,4.438-4.925c.534-.173.707-.385.691-.943-.039-1.571,0-3.181,0-4.768a.927.927,0,0,1,.66-1.076c3.558-1.39,7.07-2.844,10.636-4.234.731-.283.636-.479.165-.935-1.28-1.249-1.406-1.39-.267-2.687s.479-2.262,0-3.393a.613.613,0,0,0-.5-.361c-.267-.055-.542-.094-.786-.157-.683-.165-1.618,0-1.98-.542s-.1-1.312-.11-2c0-1.508.047-3.016,0-4.517,0-.691.244-.9.833-.99s1.17-.283,1.767-.322.786-.432,1.021-.872a2.434,2.434,0,0,0-.346-3.071c-.958-1.241-.9-1.288.2-2.357,1.218-1.225,2.451-2.427,3.645-3.668.369-.385.644-.479,1.092-.126s1.147.738,1.681,1.155c.408.314.731.2,1.186.094a2.536,2.536,0,0,0,2.027-2.529C36.394,0,36.5,0,38.02,0h5.247c.456,0,.691.086.786.589.086.652.322,1.28.385,1.925s.377.833.872,1.115a2.451,2.451,0,0,0,3.064-.346c1.241-.974,1.3-.9,2.443.244s2.357,2.419,3.6,3.59c.385.369.5.66.134,1.092-.228.267-.361.621-.6.88a2.082,2.082,0,0,0-.33,2.773c.322.558.534,1.053,1.257,1.037h.157c.715.157,1.673.086,2.082.526s.134,1.461.149,2.223v4.517c0,.479-.126.7-.6.738-.267,0-.534.149-.786.149A2.537,2.537,0,0,0,53.2,23.291a.95.95,0,0,0,.094.9c.44.628.833,1.288,1.288,1.9.267.369.244.636-.11.9a.833.833,0,0,0-.118.118c-1.312,1.328-1.312,1.328.385,2.011,3.236,1.3,6.465,2.616,9.709,3.888a.88.88,0,0,1,.676,1.005v5.012c0,.385.094.558.495.668a6.559,6.559,0,0,1,4.729,6.661,22.112,22.112,0,0,1-.141,3.676A6.551,6.551,0,0,1,57.25,48.64a18.751,18.751,0,0,1,.118-3.928,6.363,6.363,0,0,1,4.478-4.965c.5-.165.676-.369.652-.9-.055-1.068,0-2.137,0-3.2a.691.691,0,0,0-.534-.786c-3.472-1.375-6.944-2.749-10.393-4.171a.856.856,0,0,0-1.17.369c-.5.7-1.021.786-1.65.165a2.16,2.16,0,0,0-.408-.267c-1.618-1.1-1.83-1.108-3.5-.2a.848.848,0,0,0-.4.668c-.141.786-.338,1.493-.44,2.247-.063.44-.275.511-.652.511-.589,0-1.375-.259-1.728.134s-.094,1.2-.126,1.822C41.492,36.386,41.5,36.637,41.5,36.92ZM40.172,26.292A9.2,9.2,0,1,0,31,17.085,9.2,9.2,0,0,0,40.172,26.292Z" transform="translate(-2.143)"/><path class="a" d="M44.472,92.792H30.78c-.566,0-.731-.149-.731-.731V82.541a3.873,3.873,0,0,1,3.1-3.849c2.121-.495,4.258-.935,6.379-1.43a.66.66,0,0,1,.786.251,5.255,5.255,0,0,0,8.421,0,.723.723,0,0,1,.841-.275c2.1.495,4.2.927,6.284,1.414A3.865,3.865,0,0,1,58.95,82.58v9.426c0,.621-.165.786-.786.786-4.588-.039-9.136-.039-13.692-.039Z" transform="translate(-6.443 -16.556)"/><path class="a" d="M67.82,78.06c1.257-.291,2.4-.542,3.527-.786.346-.086.487.141.676.338,2.553,2.8,5.758,2.789,8.358,0a.738.738,0,0,1,.841-.267c2.09.487,4.195.927,6.284,1.406a3.857,3.857,0,0,1,3.142,3.928V92.2c0,.511-.11.7-.668.7H70.342c-.55,0-.676-.181-.668-.7V84.407C69.705,82.051,69.532,79.883,67.82,78.06Z" transform="translate(-14.544 -16.569)"/><path class="a" d="M22.827,78.046c-1.728,1.8-1.893,3.928-1.846,6.182.047,2.624,0,5.255,0,7.855,0,.518-.1.7-.668.7q-9.772-.024-19.528.031c-.644,0-.786-.2-.786-.786V82.6a3.849,3.849,0,0,1,3.024-3.873c2.121-.495,4.258-.935,6.379-1.43a.786.786,0,0,1,.841.283c2.529,2.8,5.8,2.8,8.366,0,.157-.173.283-.416.589-.346Z" transform="translate(0.002 -16.562)"/><path class="a" d="M20.271,73.929c0,1.453-1.94,2.655-3.433,2.121A2.537,2.537,0,0,1,15,73.842c0-.495.063-.676.628-.526a8.2,8.2,0,0,0,3.881.047C20.271,73.183,20.271,73.19,20.271,73.929Z" transform="translate(-3.215 -15.713)"/><path class="a" d="M47.672,76.195a2.569,2.569,0,0,1-2.592-2.537c0-.385.149-.471.495-.377a8.185,8.185,0,0,0,4.265,0c.338-.086.471,0,.5.361a2.584,2.584,0,0,1-2.671,2.553Z" transform="translate(-9.667 -15.709)"/><path class="a" d="M75.106,73.888c-.063-.589.079-.786.723-.589a8.272,8.272,0,0,0,3.645.071c.275-.047.676-.338.786-.079a1.391,1.391,0,0,1,0,1.335A2.914,2.914,0,0,1,77.73,76.2,3.048,3.048,0,0,1,75.2,74.626,2.242,2.242,0,0,1,75.106,73.888Z" transform="translate(-16.103 -15.696)"/><path class="a" d="M19.334,9.746c-.157.448.479,1.351-.825,1.288-1.8-.094-1.8,0-1.8-.872,0-1.791,0-1.8,1.846-1.783C19.459,8.387,19.294,8.2,19.334,9.746Z" transform="translate(-3.582 -1.796)"/><path class="a" d="M79.435,9.645c0,1.335,0,1.335-1.492,1.328-1.147,0-1.084,0-1.163-1.838,0-.88.424-.786.982-.786C79.435,8.381,79.435,8.373,79.435,9.645Z" transform="translate(-16.465 -1.79)"/><path class="a" d="M12.653,19.757c0,1.28,0,1.28-1.367,1.28s-1.257,0-1.257-1.571c0-1.076,0-1.076,1.657-1.076C12.653,18.414,12.653,18.414,12.653,19.757Z" transform="translate(-2.149 -3.944)"/><path class="a" d="M19.325,19.72c0,1.343,0,1.343-1.477,1.335-1.155,0-1.1,0-1.178-1.83,0-.872.4-.786.982-.786C19.325,18.432,19.325,18.424,19.325,19.72Z" transform="translate(-3.574 -3.954)"/><path class="a" d="M79.436,19.653c0,1.351,0,1.351-1.367,1.351-1.249,0-1.249,0-1.249-1.225,0-1.4,0-1.4,1.406-1.4C79.436,18.411,79.436,18.411,79.436,19.653Z" transform="translate(-16.474 -3.942)"/><path class="a" d="M83.493,19.658c.149-.424-.471-1.3.786-1.249,1.83.063,1.838,0,1.838.99,0,1.657,0,1.657-1.225,1.665C83.5,21.057,83.5,21.057,83.493,19.658Z" transform="translate(-17.9 -3.948)"/><path class="a" d="M12.647,29.846c-.181.408.479,1.3-.786,1.265C10,31.056,10,31.111,10,30.058c0-1.571,0-1.571,1.21-1.571C12.639,28.448,12.639,28.448,12.647,29.846Z" transform="translate(-2.143 -6.107)"/><path class="a" d="M19.286,29.8c0,1.288,0,1.288-1.351,1.288s-1.265,0-1.265-1.626c0-1.005,0-1.005,1.728-1C19.286,28.46,19.286,28.46,19.286,29.8Z" transform="translate(-3.573 -6.103)"/><path class="a" d="M79.433,29.84c0,1.257,0,1.257-1.233,1.241-1.4,0-1.4,0-1.39-1.422,0-1.2,0-1.2,1.2-1.21C79.426,28.442,79.426,28.442,79.433,29.84Z" transform="translate(-16.471 -6.101)"/><path class="a" d="M86.116,29.733c0,1.351,0,1.351-1.375,1.351-1.241,0-1.241,0-1.241-1.233,0-1.39,0-1.39,1.414-1.39C86.116,28.46,86.116,28.46,86.116,29.733Z" transform="translate(-17.906 -6.104)"/><path class="a" d="M11.307,38.47c.542.141,1.406-.408,1.335.864-.1,1.783,0,1.8-1.87,1.783-1.571,0-.589-1.194-.738-1.8C9.72,38.1,10.757,38.627,11.307,38.47Z" transform="translate(-2.114 -8.25)"/><path class="a" d="M84.833,38.49c1.28,0,1.249,0,1.3,1.7,0,.707-.126.99-.911.958-1.72-.071-1.728,0-1.728-1.186C83.49,38.49,83.49,38.49,84.833,38.49Z" transform="translate(-17.904 -8.255)"/><path class="a" d="M45.307,23.848c0,.6-.047,1.2,0,1.8.079.786-.244.786-.833.566a6.575,6.575,0,1,1,4.171,0c-.621.2-.786.055-.731-.542V21.892c0-.5-.157-.636-.652-.652-2-.039-2-.055-1.987,1.917Zm1.28-7.808c-1.28,0-1.28,0-1.28,1.2,0,1.422,0,1.422,1.39,1.414,1.233,0,1.233,0,1.241-1.241,0-1.383,0-1.383-1.351-1.375Z" transform="translate(-8.574 -2.874)"/></g></g></g></svg>