<svg xmlns="http://www.w3.org/2000/svg" width="82.896" height="83.693" viewBox="0 0 82.896 83.693"><defs><style>.a{fill:#07f;}</style></defs><g transform="translate(-837.656 -3746.768)"><g transform="translate(837.656 3746.768)"><g transform="translate(0 0)"><path class="a" d="M0,32.062c1.309-1.3,2.3-2.305,4.582-.949,1.594.949,4.145.389,6.261.36A6.991,6.991,0,0,1,15.4,32.565c2.59,1.983,5.635,1.66,8.585,1.9,1.356.095,1.983-.474,1.9-1.9a13.28,13.28,0,0,1,0-3.187c.332-1.755,1.062-3.13,3.3-3.149,1.489,0,3.633.949,4.373-.854.835-2.03,1.138-4.914-.095-6.507-3.709-4.743-1.9-10.434-3.348-15.585A2.286,2.286,0,0,1,31.066.73c.882-.579,1.546.228,2.172.806.844.778.664,1.451.237,2.514-1.461,3.6-1.7,7.38.18,10.918,1.527,2.846,2.628,5.748,2.163,9.059-.152,1.584.36,2.533,2.125,2.305,1.4-.152,3.358.446,3.121-1.992-.446-4.686,1.252-9.543-1.11-14.086-.484-.949.152-1.66.873-2.172a1.755,1.755,0,0,1,2.343.18c.512.484,1.423,1.091.768,1.831-2.334,2.628-.949,5.691-1.252,8.6-.161,1.48,0,3-.161,4.477-.228,2.286.493,3.235,3,3.235s3.045-1.1,2.77-3.33a12.426,12.426,0,0,1,2.163-8.471c1.84-2.846,1.5-6.574.493-9.249-.854-2.286-.341-3.614.341-5.359H52.57c.949,1.9,1.594,3.633.133,5.691-.56.8-.161,2.286-.123,3.462.085,2.846,0,5.635-1.764,8.224-1.518,2.21-.816,4.952-.806,7.484,0,1.613,1.262,1.385,2.315,1.432,5.189.247,5.322.247,5.236,5.179,0,2.334.806,2.846,2.979,2.846,2.846,0,5.549-.152,7.94-1.84,1.812-1.271,3.88-.892,5.881-1.024s4.269.683,6.109-1.043c.645-.6,1.489-.1,1.964.493a2.324,2.324,0,0,1,.161,2.438,1.48,1.48,0,0,1-1.954.607c-5-1.565-9.761-1.432-14.39,1.347-1.9,1.148-4.193.493-6.3.465s-2.438,1.148-2.352,2.846c.076,1.508-.2,3.282,2.144,3,4.743-.56,9.562,1.186,14.124-1.138a1.717,1.717,0,0,1,2.229.778,1.641,1.641,0,0,1-.1,2.068A1.783,1.783,0,0,1,73.724,44c-4.658-2.258-9.619-.55-14.418-1.005-1.442-.133-1.793.949-1.641,2.172s-.6,3.728,1.148,3.405c6.232-1.148,11.241,3.965,17.359,2.922,1.442-.247,2.95.066,4.259-.949a1.461,1.461,0,0,1,2.02.341,2.267,2.267,0,0,1,.161,2.447,1.432,1.432,0,0,1-2.172.6c-1.66-1.157-3.491-.9-5.255-.778a13.062,13.062,0,0,1-8.537-2.02c-2.352-1.565-4.961-.949-7.484-.949-1.461,0-1.518,1.11-1.584,2.267-.323,5.416-.341,5.473-5.6,5.8-1.508.085-2.049.579-2.068,2.077,0,3.1-.152,6.175,1.964,8.812,1.024,1.271.56,2.846.692,4.335.237,2.476-.787,5.1,1.072,7.408.768.949,0,1.774-.787,2.428s-1.432.266-2.058-.123a1.84,1.84,0,0,1-.636-2.533c1.9-4.231,1.9-8.291-.673-12.332a10.434,10.434,0,0,1-1.11-7.067c.285-2.258-.417-2.988-2.732-3.026s-3.206.768-3.026,3.159c.209,2.77.123,5.559.095,8.329,0,1.508-.209,3.007.949,4.221.949.949.36,1.745-.455,2.4a1.679,1.679,0,0,1-2.324.085c-.8-.645-1.319-1.3-.759-2.447,2.258-4.667.692-9.619.892-14.437.076-1.812-1.954-1.081-3.111-1.224s-2.153.266-1.954,1.736c.531,3.9-1.29,7.057-2.722,10.51a11.544,11.544,0,0,0,.323,9.818c.5.949.949,1.679,0,2.5-.673.56-1.4,1.081-2.305.664a1.9,1.9,0,0,1-.949-2.722,8.585,8.585,0,0,0,.512-4.743,14.162,14.162,0,0,1,2.476-9.609,4.952,4.952,0,0,0,.73-3.026c-.066-4.743,0-4.743-4.838-5.151-2.409-.19-2.846-1.745-3.225-3.633-.256-1.423.787-3.491-.664-4.183a7.33,7.33,0,0,0-6.507,0c-4.193,2.485-8.537,2.779-13.195,2.751-1.9,0-3.918,1.793-5.549-.636v-.645C1.319,50.806,2.286,50.2,4.42,51a12.51,12.51,0,0,0,9.372,0A18.44,18.44,0,0,1,23.857,48.8c2.476.209,2.011-1.537,2.077-2.979s.123-3.121-2.2-2.846c-4.591.5-9.353-1.1-13.821,1.1-.9.446-1.632-.085-2.172-.844a1.356,1.356,0,0,1-.152-1.783c.541-.825,1.394-1.347,2.163-.949,4.458,2.315,9.23.579,13.8,1.167,2.248.294,2.428-1.005,2.352-2.7s.408-3.292-2.248-3.149-5.5.341-8.025-1.347C12.161,32.138,8.148,32.8,4.5,33.523c-1.9.389-3.149.37-4.5-.825ZM26.74,42.326V54.164c0,2.438,1.1,3.491,3.481,3.481H53.576c2.39,0,3.462-1.043,3.434-3.5q-.1-11.838,0-23.715c0-2.466-1.053-3.462-3.462-3.443-7.778.047-15.566,0-23.354,0-2.381,0-3.519,1.015-3.462,3.481C26.8,34.433,26.74,38.38,26.74,42.326Z" transform="translate(0 0)"/><path class="a" d="M29.895,43.669c0-3.529.1-7.048,0-10.567-.085-2.182.683-3.121,2.846-3.1q10.728.076,21.447,0c1.9,0,2.609.835,2.59,2.713q-.085,11.2,0,22.4c0,1.9-.816,2.666-2.694,2.656q-10.709-.066-21.438,0c-2.039,0-2.846-.806-2.846-2.846.1-3.728,0-7.465,0-11.193Z" transform="translate(-1.532 -1.543)"/></g></g></g></svg>