<svg xmlns="http://www.w3.org/2000/svg" width="72.108" height="71.38" viewBox="0 0 72.108 71.38"><defs><style>.a{fill:#07f;}</style></defs><g transform="translate(-897.508 -3764.361)"><g transform="translate(897.544 3764.358)"><g transform="translate(-0.036 0.003)"><path class="a" d="M72.072,64.786c-1.057,0-1.057.932-1.4,1.6-2.914,5.669-9.357,6.735-13.811,2.065-4.962-5.178-9.674-10.681-14.494-16S32.711,41.7,27.908,36.331a2.99,2.99,0,0,0-3.68-1.1A18.182,18.182,0,0,1,.294,14.653c2.822,1.757,4.7,4.321,6.951,6.469,3.921,3.755,8.242,3.83,12-.142,1.757-1.856,4.362-3.055,4.6-6.21.25-3.33-.425-6.011-3.188-8.192A77.546,77.546,0,0,1,14.621.766c6.452-2.4,14.985,1.057,18.956,7.493,3.047,4.928,3.879,10.215,1.856,15.618-.833,2.09-.1,2.964,1.249,4.163,10.082,9.016,20.072,18.149,30.228,27.09,2.115,1.865,3.388,4.262,5.162,6.327Zm-6.935-2.93C65,59.933,64.014,58.7,62.066,58.667a2.914,2.914,0,0,0-3.255,2.98,2.955,2.955,0,0,0,3.205,3.33C63.98,65.027,64.929,63.729,65.137,61.856Z" transform="translate(0.036 -0.003)"/><path class="a" d="M3.109,70.388a3.855,3.855,0,0,1,1.424-3.014c6.66-6.66,13.362-13.32,19.98-19.98,1.54-1.565,2.5-1.823,4.163,0,5.486,5.828,5.536,5.769-.158,11.389-5.37,5.253-10.664,10.623-16.009,15.942-1.482,1.482-3.155,2.7-5.295,1.407S3.018,73.493,3.109,70.388Z" transform="translate(-0.49 -7.728)"/><path class="a" d="M51.494,31.234c-1.1-.133-1.59-.916-2.156-1.557-.932-1.057.175-1.665.7-2.173q6.377-6.519,12.879-12.92c2.348-2.323,4.72-4.537,6.327-7.567,1.665-3.164,4.6-3.83,6.477-2.173,1.166,1.024,1.041,1.723.383,3.047-1.615,3.247-5.236,3.888-7.493,6.269-5.053,5.278-10.3,10.373-15.468,15.535C52.559,30.235,51.985,30.751,51.494,31.234Z" transform="translate(-8.173 -0.667)"/></g></g></g></svg>