<svg xmlns="http://www.w3.org/2000/svg" width="83.895" height="83.9" viewBox="0 0 83.895 83.9"><defs><style>.a{fill:#fff;}</style></defs><g transform="translate(-0.013)"><g transform="translate(0.013 60.127)"><g transform="translate(0)"><path class="a" d="M2.81,344.013H.013c0,6.233,6.351,12.584,12.584,12.584v-2.8C7.931,353.8,2.81,348.679,2.81,344.013Z" transform="translate(-0.013 -344.013)"/></g></g><g transform="translate(1.411 0)"><g transform="translate(0 0)"><path class="a" d="M87.08,36.918a11.171,11.171,0,0,0-3.687-3.324,11.157,11.157,0,0,0-8.348-16.729,11.2,11.2,0,0,0-11.1-9.872c-.042,0-.082.008-.124.008A8.378,8.378,0,0,0,48.562,3.764,8.378,8.378,0,0,0,33.3,7.073a11.2,11.2,0,0,0-9.806,9.715c-.032,0-.064-.007-.1-.007A11.186,11.186,0,0,0,12.753,31.425a11.171,11.171,0,0,0,.984,18.888,11.157,11.157,0,0,0,8.342,16.722,11.2,11.2,0,0,0,11.1,9.872c.042,0,.082-.008.124-.008a8.378,8.378,0,0,0,15.256,3.238,8.378,8.378,0,0,0,15.266-3.31,11.2,11.2,0,0,0,9.806-9.708c.032,0,.064.007.1.007A11.186,11.186,0,0,0,84.372,52.482,11.171,11.171,0,0,0,87.08,36.918Zm-9.154,14.82v2.8a11.087,11.087,0,0,0,3.915-.721,8.36,8.36,0,0,1-8.11,10.509h-.089A11.121,11.121,0,0,0,68.418,56.2l-1.47,2.377A8.39,8.39,0,0,1,63.8,74.006a8.389,8.389,0,0,0-2.657-4.747l-1.865,2.083a5.593,5.593,0,1,1-9.321,4.165v-2.8h-2.8v2.8a5.593,5.593,0,1,1-8.949-4.474L36.537,68.8a8.313,8.313,0,0,0-3.224,5.3c-.043,0-.087.01-.13.01a8.39,8.39,0,0,1-8.28-7.1,11.205,11.205,0,0,0,1.688-.354l-.8-2.682a8.39,8.39,0,1,1,1.2-15.624l1.2-2.525a11.176,11.176,0,0,0-12.717,2.22A8.376,8.376,0,0,1,19.2,32.162v-2.8a11.087,11.087,0,0,0-3.915.722,8.36,8.36,0,0,1,8.11-10.509h.089A11.12,11.12,0,0,0,28.707,27.7l1.47-2.377A8.39,8.39,0,0,1,33.322,9.894a8.389,8.389,0,0,0,2.657,4.747l1.865-2.083a5.593,5.593,0,1,1,9.321-4.165v2.8h2.8v-2.8a5.593,5.593,0,1,1,8.949,4.474L60.588,15.1a8.313,8.313,0,0,0,3.224-5.3c.043,0,.087-.01.13-.01a8.39,8.39,0,0,1,8.28,7.1,11.206,11.206,0,0,0-1.688.354l.8,2.682a8.39,8.39,0,1,1-1.2,15.624l-1.2,2.525a11.176,11.176,0,0,0,12.717-2.22,8.376,8.376,0,0,1-3.728,15.883Z" transform="translate(-8.013 0)"/></g></g><g transform="translate(29.376 23.092)"><path class="a" d="M176.4,132.117a12.6,12.6,0,0,0-8.39,11.867h2.8a9.809,9.809,0,0,1,6.524-9.228Z" transform="translate(-168.013 -132.117)"/></g><g transform="translate(40.562 22.374)"><path class="a" d="M232.013,128.09l.306,2.78a9.959,9.959,0,0,1,2.181,0l.309-2.78A12.764,12.764,0,0,0,232.013,128.09Z" transform="translate(-232.013 -128.014)"/></g><g transform="translate(23.781 16.763)"><path class="a" d="M169.5,104.3a18.177,18.177,0,1,0-25.1,25.1v3.133a4.156,4.156,0,0,0-1.706,6.734,4.177,4.177,0,0,0,3.1,6.991h16.779a4.177,4.177,0,0,0,3.1-6.991,4.156,4.156,0,0,0-1.706-6.734v-3.133A18.177,18.177,0,0,0,169.5,104.3Zm-6.928,39.167H145.79a1.4,1.4,0,1,1,0-2.8h16.779a1.4,1.4,0,1,1,0,2.8Zm0-5.593H145.79a1.4,1.4,0,1,1,0-2.8h16.779a1.4,1.4,0,1,1,0,2.8Zm-.7-10.463a1.4,1.4,0,0,0-.7,1.21v3.661h-5.593v-7.811l5.183-5.183-1.977-1.977-4.6,4.6-4.6-4.6-1.977,1.977,5.183,5.183v7.811h-5.593v-3.661a1.4,1.4,0,0,0-.7-1.21,15.381,15.381,0,1,1,15.381,0Z" transform="translate(-136 -95.909)"/></g><g transform="translate(0.013 54.534)"><rect class="a" width="2.797" height="2.797"/></g><g transform="translate(71.324 11.188)"><path class="a" d="M408.013,64.013v2.8c4.666,0,9.788,5.122,9.788,9.788h2.8C420.6,70.364,414.246,64.013,408.013,64.013Z" transform="translate(-408.013 -64.013)"/></g><g transform="translate(81.112 26.569)"><rect class="a" width="2.797" height="2.797"/></g></g></svg>