<svg xmlns="http://www.w3.org/2000/svg" width="77.642" height="77.643" viewBox="0 0 77.642 77.643"><defs><style>.a{fill:#fff;}</style></defs><path class="a" d="M221.165,107.582a7.582,7.582,0,1,0-7.582,7.582A7.591,7.591,0,0,0,221.165,107.582Zm-12.132,0a4.549,4.549,0,1,1,4.549,4.549A4.554,4.554,0,0,1,209.033,107.582Zm0,0" transform="translate(-174.761 -84.835)"/><path class="a" d="M249.034,141.516A1.516,1.516,0,0,0,247.517,140h0a1.516,1.516,0,1,0,1.518,1.516Zm0,0" transform="translate(-208.695 -118.769)"/><path class="a" d="M16.681,350.25H12.132v-4.7a1.518,1.518,0,0,1,1.516-1.516h3.033a1.516,1.516,0,1,0,0-3.033H13.648A4.554,4.554,0,0,0,9.1,345.549v4.7H4.549A4.554,4.554,0,0,0,0,354.8v7.582a4.554,4.554,0,0,0,4.549,4.549H16.681a4.554,4.554,0,0,0,4.549-4.549V354.8A4.554,4.554,0,0,0,16.681,350.25ZM18.2,362.382a1.518,1.518,0,0,1-1.516,1.516H4.549a1.518,1.518,0,0,1-1.516-1.516V354.8a1.518,1.518,0,0,1,1.516-1.516H16.681A1.519,1.519,0,0,1,18.2,354.8Zm0,0" transform="translate(0 -289.288)"/><path class="a" d="M163.019,60.962H158.47v-4.7a4.554,4.554,0,0,0-4.549-4.549H130.263V45.494h2.022a1.516,1.516,0,0,0,1.516-1.516V40.364a18.137,18.137,0,0,0,3.827-1.587l2.556,2.556a1.517,1.517,0,0,0,2.145,0l5-5a1.516,1.516,0,0,0,0-2.144l-2.556-2.556a18.164,18.164,0,0,0,1.586-3.827h3.614a1.517,1.517,0,0,0,1.516-1.516V19.208a1.517,1.517,0,0,0-1.516-1.516h-3.613a18.122,18.122,0,0,0-1.587-3.827l2.556-2.555a1.516,1.516,0,0,0,0-2.144l-5-5a1.517,1.517,0,0,0-2.145,0l-2.556,2.556A18.153,18.153,0,0,0,133.8,5.129V1.517A1.516,1.516,0,0,0,132.285,0h-7.076a1.516,1.516,0,0,0-1.516,1.516V5.13a18.137,18.137,0,0,0-3.827,1.587L117.309,4.16a1.517,1.517,0,0,0-2.144,0l-5,5a1.517,1.517,0,0,0,0,2.144l2.557,2.557a18.153,18.153,0,0,0-1.586,3.827h-3.614A1.516,1.516,0,0,0,106,19.209v7.076a1.516,1.516,0,0,0,1.516,1.516h3.613a18.121,18.121,0,0,0,1.586,3.827l-2.556,2.555a1.518,1.518,0,0,0,0,2.145l5,5a1.517,1.517,0,0,0,2.144,0l2.556-2.556a18.136,18.136,0,0,0,3.827,1.587v3.613a1.516,1.516,0,0,0,1.516,1.516h2.022v6.218h-6.975a1.516,1.516,0,0,0,0,3.033h6.975v6.218h-4.549a4.554,4.554,0,0,0-4.549,4.549v7.582a4.554,4.554,0,0,0,4.549,4.549h12.131a4.554,4.554,0,0,0,4.549-4.549V65.511a4.554,4.554,0,0,0-4.549-4.549h-4.549V54.744H153.92a1.518,1.518,0,0,1,1.516,1.516v4.7h-4.549a4.554,4.554,0,0,0-4.549,4.549v7.582a4.552,4.552,0,0,0,3.408,4.4,1.516,1.516,0,0,0,.764-2.935,1.519,1.519,0,0,1-1.139-1.468V65.511a1.518,1.518,0,0,1,1.516-1.516h12.132a1.519,1.519,0,0,1,1.516,1.516v7.582a1.519,1.519,0,0,1-1.14,1.468,1.517,1.517,0,1,0,.762,2.936,4.553,4.553,0,0,0,3.41-4.4V65.511A4.553,4.553,0,0,0,163.019,60.962ZM125.526,37.7a15.161,15.161,0,0,1-5.073-2.1,1.517,1.517,0,0,0-1.9.2l-2.32,2.321-2.859-2.859,2.32-2.321a1.516,1.516,0,0,0,.2-1.9,15.151,15.151,0,0,1-2.1-5.072,1.517,1.517,0,0,0-1.483-1.2h-3.28V20.725h3.281a1.517,1.517,0,0,0,1.483-1.2,15.145,15.145,0,0,1,2.1-5.072,1.516,1.516,0,0,0-.2-1.9l-2.321-2.321,2.859-2.859L118.558,9.7a1.516,1.516,0,0,0,1.9.2,15.168,15.168,0,0,1,5.073-2.1,1.516,1.516,0,0,0,1.2-1.483V3.033h4.044v3.28a1.516,1.516,0,0,0,1.2,1.483,15.148,15.148,0,0,1,5.073,2.1,1.516,1.516,0,0,0,1.9-.2l2.321-2.32,2.859,2.859-2.321,2.32a1.518,1.518,0,0,0-.2,1.9,15.143,15.143,0,0,1,2.1,5.073,1.516,1.516,0,0,0,1.483,1.2h3.28v4.044H145.18a1.516,1.516,0,0,0-1.483,1.2,15.15,15.15,0,0,1-2.1,5.072,1.515,1.515,0,0,0,.2,1.9l2.321,2.321-2.859,2.859L138.936,35.8a1.517,1.517,0,0,0-1.9-.2,15.145,15.145,0,0,1-5.072,2.1,1.516,1.516,0,0,0-1.2,1.483v3.281h-4.044v-3.28a1.516,1.516,0,0,0-1.2-1.483Zm10.8,27.813v7.582a1.518,1.518,0,0,1-1.516,1.516H122.681a1.518,1.518,0,0,1-1.516-1.516V65.511a1.518,1.518,0,0,1,1.516-1.516h12.132A1.518,1.518,0,0,1,136.329,65.511Zm0,0" transform="translate(-89.925)"/><path class="a" d="M146.517,341h0a1.516,1.516,0,1,0,1.518,1.516A1.516,1.516,0,0,0,146.516,341Zm0,0" transform="translate(-123.011 -289.288)"/><path class="a" d="M433.513,492h0a1.516,1.516,0,1,0,1.518,1.516A1.516,1.516,0,0,0,433.512,492Zm0,0" transform="translate(-366.485 -417.39)"/></svg>