<svg xmlns="http://www.w3.org/2000/svg" width="46.97" height="71.226" viewBox="0 0 46.97 71.226"><defs><style>.a{fill:#fff;}</style></defs><g transform="translate(-5.34)"><path class="a" d="M27.861,0C40.18,0,52.31,5.674,52.31,19.245c0,12.515-14.341,17.328-17.421,21.851-2.312,3.364-1.54,8.091-7.893,8.091-4.138,0-6.16-3.366-6.16-6.446,0-11.461,16.84-14.055,16.84-23.493,0-5.195-3.457-8.275-9.235-8.275-12.32,0-7.509,12.7-16.84,12.7-3.368,0-6.26-2.022-6.26-5.869C5.338,8.365,16.115,0,27.861,0Zm-.479,55.435a7.9,7.9,0,1,1-7.9,7.9A7.931,7.931,0,0,1,27.381,55.435Z" transform="translate(0)"/></g></svg>